<?xml version="1.0" encoding="UTF-8" standalone="no"?><!DOCTYPE svg PUBLIC "-//W3C//DTD SVG 1.1//EN" "http://www.w3.org/Graphics/SVG/1.1/DTD/svg11.dtd"><svg width="100%" height="100%" viewBox="0 0 607 368" version="1.1" xmlns="http://www.w3.org/2000/svg" xmlns:xlink="http://www.w3.org/1999/xlink" xml:space="preserve" xmlns:serif="http://www.serif.com/" style="fill-rule:evenodd;clip-rule:evenodd;stroke-linejoin:round;stroke-miterlimit:1.41421;"><g id="Group-4"><path id="Fill-1" d="M338.69,144.005c-5.145,-4.66 -6.34,-14.533 1.674,-19.497l-14.42,-44.227c-20.88,-4.169 -41.563,-2.084 -59.002,5.298c8.493,-20.683 28.991,-33.585 52.676,-35.749l-4.859,-20.882l-16.125,-10.092c-4.692,5.519 -14.93,5.01 -18.865,-1.554c-3.283,-5.464 -1.45,-12.488 4.063,-15.709c5.513,-3.214 12.628,-1.415 15.909,4.049c1.315,2.195 1.809,4.638 1.563,7.008l18.545,11.71l1.275,1.924l5.737,23.236c10.117,0 20.243,1.782 30.91,6.014c10.668,4.225 20.611,10.762 28.227,18.352l24.418,-15.52l2.271,-0.526l21.573,4.201c1.458,-1.862 3.537,-3.325 6.007,-4.009c6.183,-1.751 12.58,1.83 14.324,7.93c1.769,6.103 -1.817,12.434 -7.982,14.151c-8.358,2.339 -15.208,-4.541 -14.763,-11.773l-18.714,-3.682l-22.299,14.533c14.54,17.532 19.79,40.045 11.776,60.154c-10.819,-26.243 -47.849,-54.419 -69.184,-57.846l0.286,0.953l13.145,40.092c6.223,0.016 10.175,2.555 11.847,6.093c5.88,12.442 -8.66,25.71 -20.013,15.368Zm-120.41,102.801c1.419,0 2.566,1.145 2.566,2.56c0,1.417 -1.147,2.563 -2.566,2.563c-1.417,0 -2.564,-1.146 -2.564,-2.563c0,-1.415 1.147,-2.56 2.564,-2.56Zm-4.364,-7.822c1.417,0 2.565,1.146 2.565,2.563c0,1.416 -1.148,2.562 -2.565,2.562c-1.419,0 -2.566,-1.146 -2.566,-2.562c0,-1.417 1.147,-2.563 2.566,-2.563Zm122.927,-94.946c-0.614,-0.629 -1.626,-0.629 -2.254,-0.024c-0.63,0.596 -0.654,1.591 -0.041,2.203c0.606,0.605 1.633,0.66 2.263,0.065c0.63,-0.598 0.645,-1.616 0.032,-2.244Zm25.97,-5.401c-0.613,-0.629 -1.616,-0.622 -2.244,-0.024c-0.63,0.596 -0.654,1.59 -0.048,2.205c0.604,0.612 1.633,0.658 2.261,0.062c0.63,-0.597 0.645,-1.607 0.031,-2.243Zm3.618,6.34c-0.612,-0.629 -1.617,-0.629 -2.254,-0.024c-0.63,0.596 -0.654,1.591 -0.041,2.196c0.606,0.612 1.633,0.666 2.263,0.072c0.63,-0.606 0.645,-1.616 0.032,-2.244Zm-1.689,12.305c-0.613,-0.629 -1.624,-0.62 -2.254,-0.023c-0.63,0.596 -0.654,1.591 -0.048,2.203c0.613,0.613 1.633,0.66 2.261,0.063c0.63,-0.596 0.654,-1.607 0.041,-2.243Zm-0.127,-4.924c-0.734,0.795 -1.944,0.836 -2.725,0.12c-0.797,-0.708 -0.837,-1.917 -0.126,-2.697c0.715,-0.778 1.934,-0.812 2.716,-0.103c0.789,0.715 0.851,1.916 0.135,2.68Zm-2.574,-5.877c-0.732,0.795 -1.944,0.834 -2.732,0.118c-0.789,-0.709 -0.828,-1.917 -0.119,-2.697c0.717,-0.779 1.935,-0.812 2.716,-0.094c0.789,0.706 0.852,1.907 0.135,2.673Zm-7.098,6.244c-1.506,-0.972 -1.927,-2.99 -0.933,-4.479c0.988,-1.496 3.021,-1.909 4.534,-0.924c1.505,0.987 1.927,2.992 0.933,4.481c-0.989,1.485 -3.019,1.924 -4.534,0.922Zm-2.295,-40.29c-0.7,0.771 -1.936,0.833 -2.708,0.127c-0.789,-0.718 -0.837,-1.943 -0.12,-2.706c0.717,-0.764 1.928,-0.81 2.717,-0.094c0.789,0.715 0.828,1.909 0.111,2.673Zm-5.537,-7.733c-0.7,0.78 -1.934,0.843 -2.708,0.136c-0.782,-0.718 -0.837,-1.942 -0.12,-2.706c0.717,-0.762 1.928,-0.81 2.717,-0.094c0.789,0.708 0.837,1.9 0.111,2.664Zm1.515,6.458c-1.164,1.354 -3.227,1.505 -4.606,0.35c-1.378,-1.153 -1.537,-3.18 -0.375,-4.534c1.164,-1.352 3.221,-1.518 4.614,-0.373c1.361,1.163 1.529,3.197 0.367,4.557Zm-16.031,-0.541c1.292,0.67 1.785,2.253 1.101,3.533c-0.678,1.273 -2.255,1.727 -3.545,1.066c-1.284,-0.66 -1.792,-2.212 -1.108,-3.484c0.678,-1.281 2.27,-1.775 3.552,-1.115Zm20.109,4.957c1.347,1.232 1.426,3.3 0.199,4.614c-1.234,1.321 -3.322,1.424 -4.652,0.199c-1.337,-1.225 -1.45,-3.309 -0.214,-4.623c1.225,-1.319 3.32,-1.415 4.667,-0.19Zm-15.597,6.451c-0.026,1.996 -1.674,3.62 -3.699,3.605c-2.03,-0.026 -3.663,-1.672 -3.649,-3.677c0.026,-1.996 1.682,-3.588 3.706,-3.564c2.016,0 3.657,1.64 3.642,3.636Zm21.47,58.675c-1.243,0.779 -2.925,0.428 -3.714,-0.813c-0.788,-1.24 -0.437,-2.856 0.828,-3.642c1.26,-0.787 2.917,-0.422 3.714,0.819c0.789,1.242 0.421,2.856 -0.828,3.636Zm-30.451,71.902c-0.031,-1.21 0.885,-2.195 2.073,-2.219c1.155,-0.041 2.151,0.85 2.213,2.02c0.058,1.169 -0.844,2.156 -2.047,2.228c-1.195,0.03 -2.191,-0.869 -2.239,-2.029Zm42.822,17.206c-1.083,-0.279 -1.737,-1.36 -1.465,-2.434c0.279,-1.082 1.402,-1.735 2.485,-1.457c1.092,0.279 1.736,1.385 1.457,2.459c-0.279,1.083 -1.393,1.703 -2.477,1.432Zm-14.913,-0.875c-1.085,-0.28 -1.754,-1.354 -1.465,-2.427c0.286,-1.074 1.385,-1.742 2.468,-1.463c1.092,0.278 1.753,1.383 1.474,2.466c-0.279,1.081 -1.393,1.703 -2.477,1.424Zm-6.795,-23.188c-1.013,-0.245 -1.61,-1.28 -1.371,-2.267c0.271,-1.011 1.299,-1.607 2.302,-1.345c1.005,0.262 1.609,1.273 1.354,2.267c-0.255,0.995 -1.275,1.59 -2.285,1.345Zm-6.167,-3.571c-1.242,-1.124 -1.307,-2.991 -0.2,-4.216c1.14,-1.219 3.043,-1.274 4.279,-0.16c1.227,1.122 1.306,3.007 0.192,4.215c-1.116,1.21 -3.028,1.28 -4.271,0.161Zm-0.375,-12.816c2.023,-0.501 4.062,0.644 4.581,2.633c0.518,1.979 -0.685,4.018 -2.684,4.518c-2.001,0.501 -4.039,-0.692 -4.551,-2.673c-0.524,-1.989 0.671,-3.968 2.654,-4.478Zm12.389,-13.564c-1.099,-0.492 -2.398,-0.053 -2.932,1.037c-0.51,1.088 -0.031,2.407 1.068,2.918c1.09,0.509 2.413,0.032 2.923,-1.066c0.517,-1.059 0.033,-2.363 -1.059,-2.889Zm2.141,14.861c-1.807,-0.518 -2.875,-2.378 -2.381,-4.16c0.495,-1.783 2.381,-2.848 4.199,-2.324c1.816,0.487 2.877,2.347 2.374,4.121c-0.502,1.814 -2.381,2.847 -4.192,2.363Zm2.893,8.159c-2.167,-0.922 -3.163,-3.372 -2.263,-5.495c0.909,-2.123 3.411,-3.142 5.578,-2.243c2.158,0.906 3.179,3.381 2.263,5.506c-0.918,2.124 -3.418,3.125 -5.578,2.232Zm-6.381,-32.804c-1.698,-0.793 -3.712,-0.087 -4.51,1.599c-0.813,1.688 -0.079,3.723 1.619,4.51c1.696,0.79 3.752,0.032 4.548,-1.638c0.797,-1.662 0.039,-3.684 -1.657,-4.471Zm-3.706,-4.931c-1.097,-0.509 -2.404,-0.056 -2.914,1.042c-0.526,1.083 -0.049,2.404 1.042,2.911c1.1,0.509 2.432,0.017 2.949,-1.057c0.51,-1.074 0.024,-2.378 -1.077,-2.896Zm-10.372,-24.906c-0.597,-0.62 -1.602,-0.653 -2.237,-0.057c-0.63,0.598 -0.645,1.599 -0.024,2.212c0.613,0.646 1.624,0.66 2.239,0.057c0.621,-0.605 0.628,-1.585 0.022,-2.212Zm16.365,13.378c-1.267,0.965 -3.083,0.718 -4.04,-0.524c-0.963,-1.249 -0.732,-3.038 0.534,-3.984c1.267,-0.949 3.083,-0.723 4.048,0.516c0.955,1.249 0.733,3.031 -0.542,3.992Zm-120.179,-38.117c2.478,0.343 4.229,2.601 3.895,5.036c-0.342,2.474 -2.613,4.182 -5.098,3.857c-2.47,-0.35 -4.238,-2.577 -3.896,-5.036c0.334,-2.45 2.614,-4.199 5.099,-3.857Zm-9.544,5.447c1.313,0.009 2.35,1.09 2.333,2.382c-0.014,1.287 -1.075,2.32 -2.374,2.298c-1.313,-0.024 -2.35,-1.075 -2.341,-2.348c0.008,-1.28 1.076,-2.337 2.382,-2.332Zm-18.952,4.902c1.696,0.795 2.413,2.776 1.617,4.44c-0.798,1.66 -2.812,2.368 -4.503,1.581c-1.672,-0.786 -2.422,-2.769 -1.616,-4.439c0.805,-1.676 2.812,-2.377 4.502,-1.582Zm26.105,1.217c1.746,1.018 2.336,3.247 1.299,4.962c-1.02,1.729 -3.266,2.299 -5.01,1.292c-1.737,-1.02 -2.335,-3.247 -1.306,-4.966c1.027,-1.727 3.281,-2.299 5.017,-1.288Zm-13.414,-2.188c2.97,0.829 4.7,3.883 3.879,6.818c-0.822,2.933 -3.879,4.636 -6.874,3.817c-2.958,-0.826 -4.702,-3.883 -3.874,-6.816c0.829,-2.928 3.903,-4.647 6.869,-3.819Zm36.575,64.274c0.229,-1.027 1.234,-1.645 2.269,-1.422c1.029,0.221 1.681,1.225 1.45,2.241c-0.238,1.018 -1.234,1.638 -2.269,1.417c-1.029,-0.223 -1.683,-1.218 -1.45,-2.236Zm6.014,0c0.303,-1.328 1.649,-2.173 2.994,-1.869c1.34,0.301 2.201,1.614 1.898,2.943c-0.294,1.337 -1.633,2.18 -2.98,1.878c-1.338,-0.303 -2.206,-1.615 -1.912,-2.952Zm-18.411,24.127c0.214,-0.994 1.236,-1.645 2.263,-1.415c1.028,0.222 1.68,1.232 1.449,2.242c-0.222,1.001 -1.242,1.663 -2.271,1.44c-1.027,-0.247 -1.672,-1.249 -1.441,-2.267Zm1.155,10.661c0.813,-2.039 3.148,-3.033 5.21,-2.214c2.056,0.821 3.035,3.127 2.215,5.154c-0.82,2.029 -3.122,3.009 -5.186,2.19c-2.056,-0.814 -3.059,-3.103 -2.239,-5.13Zm17.479,1.057c0.231,-1.004 1.251,-1.664 2.278,-1.448c1.029,0.23 1.665,1.263 1.443,2.274c-0.223,1.011 -1.243,1.64 -2.271,1.417c-1.029,-0.225 -1.673,-1.232 -1.45,-2.243Zm-17.352,-19.73c0.989,-0.865 2.511,-0.778 3.394,0.209c0.885,0.978 0.796,2.498 -0.199,3.381c-0.996,0.882 -2.509,0.764 -3.418,-0.214c-0.876,-0.998 -0.773,-2.499 0.223,-3.376Zm-13.91,10.683c0.231,-1.016 1.244,-1.636 2.271,-1.415c1.027,0.224 1.665,1.218 1.434,2.236c-0.231,1.018 -1.251,1.679 -2.278,1.439c-1.028,-0.238 -1.658,-1.24 -1.427,-2.26Zm157.815,-113.544c-0.949,1.265 -2.749,1.503 -4.016,0.564c-1.275,-0.939 -1.537,-2.711 -0.59,-3.968c0.956,-1.265 2.75,-1.512 4.024,-0.566c1.268,0.941 1.53,2.706 0.582,3.97Zm-80.322,106.983c-0.047,-0.733 0.519,-1.345 1.267,-1.384c0.741,-0.017 1.362,0.541 1.395,1.256c0.024,0.723 -0.543,1.338 -1.275,1.384c-0.733,0.016 -1.362,-0.541 -1.387,-1.256Zm2.893,6.021c-1.131,-0.668 -2.59,-0.316 -3.276,0.804c-0.676,1.122 -0.301,2.562 0.813,3.254c1.155,0.668 2.638,0.286 3.307,-0.821c0.678,-1.105 0.296,-2.568 -0.844,-3.237Zm7.471,1.844c-1.544,-0.927 -3.553,-0.427 -4.491,1.1c-0.933,1.527 -0.431,3.501 1.114,4.424c1.57,0.931 3.569,0.453 4.517,-1.083c0.909,-1.526 0.399,-3.502 -1.14,-4.441Zm1.253,-0.951c-0.303,-1.439 0.637,-2.849 2.093,-3.135c1.452,-0.287 2.869,0.628 3.172,2.068c0.303,1.448 -0.63,2.839 -2.095,3.135c-1.467,0.293 -2.867,-0.629 -3.17,-2.068Zm-13.816,-1.52c-0.907,-0.534 -2.08,-0.224 -2.605,0.667c-0.534,0.882 -0.246,2.03 0.63,2.563c0.907,0.54 2.071,0.252 2.612,-0.629c0.544,-0.884 0.265,-2.076 -0.637,-2.601Zm14.533,9.673c-0.996,-1.728 -0.375,-3.971 1.376,-4.94c1.753,-0.978 3.993,-0.35 4.996,1.391c1.003,1.734 0.375,3.946 -1.393,4.909c-1.746,0.978 -3.993,0.382 -4.979,-1.36Zm20.568,-32.249c-1.003,-0.255 -1.617,-1.256 -1.369,-2.275c0.255,-0.97 1.291,-1.568 2.293,-1.313c1.005,0.264 1.611,1.273 1.347,2.269c-0.263,0.985 -1.266,1.581 -2.271,1.319Zm17.465,-9.172c-1.1,-0.502 -2.398,-0.055 -2.932,1.026c-0.51,1.097 -0.032,2.411 1.06,2.927c1.099,0.511 2.413,0.033 2.923,-1.066c0.526,-1.064 0.039,-2.361 -1.051,-2.887Zm7.035,-58.863c-0.615,-0.639 -1.618,-0.629 -2.248,-0.033c-0.629,0.595 -0.653,1.59 -0.047,2.202c0.605,0.613 1.632,0.662 2.262,0.065c0.63,-0.598 0.645,-1.607 0.033,-2.234Zm-23.519,1.979c-0.606,-0.636 -1.641,-0.636 -2.271,-0.04c-0.63,0.597 -0.644,1.584 -0.024,2.213c0.614,0.627 1.619,0.659 2.247,0.056c0.621,-0.596 0.652,-1.607 0.048,-2.229Zm11.822,2.673c-0.644,-0.66 -1.72,-0.668 -2.39,-0.024c-0.677,0.653 -0.677,1.677 -0.032,2.347c0.647,0.651 1.713,0.677 2.384,0.038c0.668,-0.627 0.683,-1.676 0.038,-2.361Zm-11.05,7.534c-0.613,0.93 -1.864,1.177 -2.788,0.564c-0.931,-0.612 -1.186,-1.846 -0.582,-2.761c0.606,-0.915 1.857,-1.177 2.788,-0.565c0.933,0.622 1.196,1.838 0.582,2.762Zm17.304,-12.872c-0.621,0.931 -1.864,1.176 -2.788,0.564c-0.933,-0.611 -1.195,-1.845 -0.582,-2.76c0.614,-0.915 1.857,-1.177 2.788,-0.557c0.933,0.613 1.196,1.83 0.582,2.753Zm-14.316,-2.991c-1.752,-1.003 -2.31,-3.245 -1.299,-4.955c1.022,-1.719 3.283,-2.269 5.02,-1.258c1.744,1.011 2.302,3.23 1.291,4.964c-1.012,1.718 -3.276,2.275 -5.012,1.249Zm5.378,38.319c1.419,-0.893 3.298,-0.471 4.183,0.915c0.892,1.383 0.478,3.245 -0.924,4.112c-1.41,0.891 -3.29,0.485 -4.183,-0.925c-0.885,-1.389 -0.471,-3.235 0.924,-4.102Zm-14.285,9.45c-1.147,-0.948 -2.843,-0.804 -3.808,0.31c-0.962,1.113 -0.803,2.799 0.344,3.745c1.13,0.939 2.827,0.813 3.782,-0.317c0.973,-1.098 0.829,-2.791 -0.318,-3.738Zm-12.866,9.036c-1.513,-0.987 -1.92,-3.015 -0.924,-4.503c0.996,-1.496 3.011,-1.886 4.525,-0.897c1.505,0.985 1.928,2.99 0.933,4.477c-0.989,1.487 -3.019,1.902 -4.534,0.923Zm-6.661,2.545c-1.13,-0.953 -2.843,-0.819 -3.807,0.31c-0.955,1.139 -0.821,2.825 0.327,3.778c1.13,0.939 2.836,0.812 3.793,-0.326c0.979,-1.12 0.827,-2.799 -0.313,-3.762Zm-18.586,19.894c-0.04,-0.93 0.693,-1.703 1.65,-1.749c0.924,-0.039 1.737,0.699 1.768,1.623c0.039,0.93 -0.685,1.718 -1.633,1.766c-0.94,0.04 -1.736,-0.709 -1.785,-1.64Zm12.715,2.226c1.506,-0.389 3.05,0.504 3.435,1.984c0.389,1.477 -0.527,3.021 -2.016,3.403c-1.489,0.373 -3.028,-0.524 -3.418,-2.013c-0.399,-1.477 0.501,-3.005 1.999,-3.374Zm-6.039,-4.705c1.363,-0.272 2.677,0.57 2.957,1.916c0.287,1.351 -0.582,2.671 -1.938,2.935c-1.354,0.27 -2.691,-0.598 -2.978,-1.924c-0.286,-1.33 0.606,-2.643 1.959,-2.927Zm-0.398,11.302c1.379,-0.295 2.692,0.589 2.98,1.919c0.278,1.326 -0.606,2.647 -1.967,2.925c-1.354,0.279 -2.677,-0.564 -2.956,-1.909c-0.272,-1.345 0.596,-2.665 1.943,-2.935Zm-2.35,-5.752c1.506,-0.367 3.043,0.526 3.426,2.004c0.391,1.481 -0.501,2.999 -2.007,3.372c-1.498,0.384 -3.045,-0.491 -3.427,-1.97c-0.39,-1.482 0.503,-3.016 2.008,-3.406Zm10.923,5.594c2.015,-0.701 4.214,0.341 4.923,2.32c0.725,1.991 -0.327,4.145 -2.326,4.854c-1.999,0.699 -4.206,-0.334 -4.923,-2.323c-0.717,-1.981 0.318,-4.15 2.326,-4.851Zm-12.835,-20.619c-0.94,-0.948 -2.463,-0.97 -3.434,-0.055c-0.956,0.915 -0.994,2.44 -0.063,3.394c0.933,0.956 2.47,0.98 3.425,0.066c0.972,-0.916 1.012,-2.444 0.072,-3.405Zm11.678,-22.719c-0.659,1.972 -2.834,3.047 -4.825,2.37c-1.994,-0.67 -3.084,-2.793 -2.415,-4.782c0.652,-1.964 2.819,-3.038 4.827,-2.377c2.009,0.66 3.077,2.807 2.413,4.789Zm-13.239,-2.626c-0.344,1.591 -1.96,2.618 -3.586,2.251c-1.624,-0.365 -2.668,-1.948 -2.285,-3.562c0.351,-1.616 1.951,-2.601 3.584,-2.253c1.626,0.358 2.669,1.958 2.287,3.564Zm16.339,24.048c1.937,-0.494 3.928,0.668 4.438,2.601c0.51,1.924 -0.669,3.896 -2.621,4.391c-1.951,0.492 -3.952,-0.67 -4.462,-2.601c-0.508,-1.924 0.678,-3.9 2.645,-4.391Zm-9.919,-9.03c-0.772,1.472 -2.596,2.03 -4.07,1.258c-1.474,-0.772 -2.056,-2.578 -1.282,-4.025c0.772,-1.457 2.596,-2.014 4.077,-1.256c1.484,0.754 2.057,2.551 1.275,4.023Zm2.311,5.832c1.768,-0.366 3.505,0.771 3.856,2.514c0.368,1.75 -0.765,3.483 -2.542,3.842c-1.768,0.366 -3.505,-0.771 -3.878,-2.523c-0.368,-1.749 0.787,-3.474 2.564,-3.833Zm-10.643,0.405c-0.152,-1.83 1.234,-3.477 3.091,-3.619c1.856,-0.151 3.504,1.232 3.649,3.079c0.144,1.854 -1.227,3.451 -3.091,3.593c-1.865,0.139 -3.49,-1.215 -3.649,-3.053Zm14.133,9.65c1.768,-0.35 3.512,0.771 3.88,2.522c0.366,1.749 -0.781,3.461 -2.55,3.809c-1.76,0.343 -3.506,-0.771 -3.872,-2.529c-0.366,-1.751 0.774,-3.453 2.542,-3.802Zm-7.728,-3.866c1.958,-0.495 3.967,0.667 4.469,2.601c0.494,1.925 -0.661,3.888 -2.629,4.39c-1.96,0.502 -3.959,-0.666 -4.462,-2.601c-0.5,-1.924 0.662,-3.905 2.622,-4.39Zm-4.024,-10.644c-0.772,1.455 -2.605,2.021 -4.079,1.258c-1.473,-0.773 -2.047,-2.579 -1.275,-4.035c0.765,-1.448 2.598,-2.02 4.072,-1.247c1.474,0.762 2.047,2.568 1.282,4.024Zm-1.227,-9.101c-0.269,1.314 -1.577,2.124 -2.884,1.823c-1.298,-0.302 -2.157,-1.561 -1.856,-2.872c0.295,-1.297 1.587,-2.099 2.908,-1.806c1.323,0.295 2.135,1.551 1.832,2.855Zm13.314,11.512c-0.774,1.472 -2.598,2.012 -4.072,1.258c-1.482,-0.759 -2.055,-2.563 -1.282,-4.027c0.772,-1.472 2.597,-2.013 4.079,-1.257c1.474,0.755 2.056,2.561 1.275,4.026Zm-6.136,-12.155c-0.582,1.702 -2.437,2.617 -4.149,2.058c-1.722,-0.555 -2.646,-2.4 -2.081,-4.095c0.575,-1.686 2.43,-2.603 4.144,-2.027c1.713,0.564 2.661,2.361 2.086,4.064Zm8.207,5.17c-0.917,1.901 -3.204,2.714 -5.131,1.821c-1.921,-0.915 -2.749,-3.187 -1.84,-5.082c0.916,-1.885 3.202,-2.728 5.138,-1.823c1.929,0.899 2.757,3.175 1.833,5.084Zm-14.014,-44.491c-0.596,-0.619 -1.616,-0.653 -2.239,-0.057c-0.622,0.605 -0.645,1.602 -0.041,2.245c0.623,0.613 1.626,0.629 2.256,0.024c0.628,-0.596 0.628,-1.582 0.024,-2.212Zm4.741,-16.084c-0.32,-0.334 -0.853,-0.326 -1.188,-0.009c-0.327,0.319 -0.327,0.814 0,1.138c0.32,0.334 0.854,0.36 1.171,0.041c0.327,-0.319 0.344,-0.843 0.017,-1.17Zm-4.231,6.959c-0.606,-0.62 -1.602,-0.611 -2.232,-0.013c-0.628,0.596 -0.668,1.59 -0.046,2.202c0.621,0.613 1.617,0.652 2.247,0.046c0.628,-0.595 0.635,-1.606 0.031,-2.235Zm-1.378,-3.88c-1.092,-0.278 -1.761,-1.383 -1.482,-2.466c0.277,-1.074 1.386,-1.703 2.478,-1.422c1.082,0.276 1.746,1.359 1.465,2.433c-0.286,1.073 -1.378,1.732 -2.461,1.455Zm3.928,4.031c-1.085,-0.277 -1.729,-1.384 -1.45,-2.465c0.269,-1.073 1.394,-1.726 2.484,-1.448c1.085,0.279 1.73,1.376 1.451,2.457c-0.279,1.074 -1.403,1.736 -2.485,1.456Zm-1.96,-8.464c-1.809,0.058 -3.307,-1.343 -3.38,-3.132c-0.07,-1.782 1.333,-3.302 3.141,-3.357c1.807,-0.056 3.33,1.361 3.4,3.143c0.064,1.78 -1.345,3.269 -3.161,3.346Zm-38.408,63.568c0.971,-1.122 2.653,-1.249 3.8,-0.286c1.147,0.97 1.275,2.649 0.31,3.77c-0.964,1.114 -2.66,1.256 -3.8,0.279c-1.147,-0.947 -1.282,-2.633 -0.31,-3.763Zm-16.643,1.741c1.292,-1.136 3.25,-1.042 4.406,0.24c1.155,1.273 1.035,3.246 -0.255,4.375c-1.291,1.12 -3.275,1.019 -4.422,-0.28c-1.148,-1.288 -1.026,-3.197 0.271,-4.335Zm1.306,-11.399c-0.07,-1.414 1.037,-2.601 2.47,-2.663c1.434,-0.065 2.661,1.023 2.726,2.44c0.055,1.41 -1.061,2.611 -2.495,2.651c-1.426,0.085 -2.629,-1.011 -2.701,-2.428Zm1.754,28.28c1.672,-1.129 3.966,-0.732 5.121,0.913c1.156,1.647 0.726,3.931 -0.946,5.062c-1.666,1.129 -3.952,0.697 -5.107,-0.948c-1.156,-1.638 -0.733,-3.905 0.932,-5.027Zm-9.003,-15.496c0.995,-0.876 2.533,-0.771 3.418,0.214c0.885,0.978 0.812,2.483 -0.183,3.349c-1.005,0.867 -2.543,0.78 -3.418,-0.214c-0.893,-0.971 -0.806,-2.482 0.183,-3.349Zm-1.744,10.261c-0.207,-2.513 1.681,-4.701 4.221,-4.9c2.542,-0.197 4.772,1.695 4.988,4.199c0.207,2.507 -1.681,4.711 -4.223,4.903c-2.542,0.197 -4.779,-1.679 -4.986,-4.202Zm19.526,4.202c0.996,-1.489 3.019,-1.88 4.534,-0.893c1.504,0.98 1.919,2.983 0.931,4.479c-0.988,1.489 -3.026,1.9 -4.534,0.915c-1.513,-0.978 -1.919,-3.016 -0.931,-4.501Zm-0.996,-12.164c0.789,-1.67 2.812,-2.378 4.501,-1.583c1.698,0.786 2.407,2.808 1.609,4.461c-0.796,1.664 -2.829,2.374 -4.508,1.584c-1.681,-0.787 -2.424,-2.783 -1.602,-4.462Zm-4.341,-6.42c0.986,-1.487 3.011,-1.878 4.517,-0.891c1.513,0.987 1.934,2.991 0.947,4.472c-0.995,1.494 -3.028,1.909 -4.541,0.93c-1.513,-0.985 -1.919,-3.015 -0.923,-4.511Zm-6.916,-4.128c1.21,-1.4 3.354,-1.583 4.78,-0.389c1.426,1.193 1.585,3.316 0.382,4.724c-1.21,1.402 -3.338,1.575 -4.772,0.358c-1.419,-1.177 -1.592,-3.284 -0.39,-4.693Zm2.892,13.682c1.029,-1.725 3.259,-2.291 5.027,-1.28c1.736,1.024 2.311,3.23 1.289,4.955c-1.034,1.726 -3.281,2.298 -5.025,1.282c-1.738,-1.011 -2.319,-3.23 -1.291,-4.957Zm11.591,-49.955c1.188,-0.358 2.47,0.301 2.843,1.47c0.377,1.162 -0.286,2.452 -1.48,2.808c-1.195,0.36 -2.47,-0.286 -2.845,-1.463c-0.366,-1.177 0.296,-2.45 1.482,-2.815Zm-4.342,14.175c1.203,-0.603 2.677,-0.113 3.291,1.088c0.613,1.194 0.127,2.642 -1.083,3.238c-1.219,0.599 -2.684,0.112 -3.292,-1.081c-0.595,-1.194 -0.118,-2.64 1.084,-3.245Zm-0.303,-9.801c1.506,-0.524 3.147,0.264 3.69,1.743c0.517,1.494 -0.248,3.134 -1.753,3.658c-1.497,0.526 -3.171,-0.277 -3.705,-1.749c-0.534,-1.479 0.263,-3.119 1.768,-3.652Zm37.874,-1.463c-2.008,0.159 -3.791,-1.297 -3.951,-3.293c-0.167,-1.996 1.298,-3.763 3.321,-3.931c2.025,-0.175 3.793,1.33 3.969,3.326c0.175,2.005 -1.33,3.739 -3.339,3.898Zm5.92,11.668c1.012,-1.312 2.908,-1.574 4.238,-0.57c1.332,1.002 1.585,2.863 0.573,4.174c-1.011,1.312 -2.906,1.568 -4.229,0.582c-1.33,-0.986 -1.585,-2.873 -0.582,-4.186Zm1.06,-6.521c-1.801,0.057 -3.323,-1.352 -3.379,-3.134c-0.055,-1.782 1.34,-3.247 3.148,-3.317c1.817,-0.072 3.337,1.321 3.394,3.103c0.056,1.782 -1.354,3.292 -3.163,3.348Zm10.635,-0.731c-0.159,1.838 -1.8,3.181 -3.671,3.029c-1.866,-0.16 -3.228,-1.782 -3.062,-3.626c0.161,-1.845 1.794,-3.199 3.651,-3.031c1.848,0.168 3.241,1.798 3.082,3.628Zm-6.683,-12.68c-1.738,0.516 -3.547,-0.469 -4.079,-2.173c-0.534,-1.71 0.428,-3.507 2.15,-4.026c1.737,-0.516 3.562,0.439 4.094,2.148c0.534,1.712 -0.445,3.532 -2.165,4.051Zm-9.265,-0.152c-1.809,0.056 -3.316,-1.344 -3.387,-3.134c-0.064,-1.782 1.331,-3.254 3.156,-3.317c1.816,-0.072 3.322,1.319 3.385,3.101c0.072,1.782 -1.355,3.293 -3.154,3.35Zm9.487,7.772c-2.016,0.157 -3.8,-1.304 -3.974,-3.302c-0.177,-1.996 1.33,-3.756 3.346,-3.92c2.015,-0.175 3.783,1.295 3.95,3.293c0.168,1.996 -1.314,3.771 -3.322,3.929Zm1.642,10.928c0.996,-1.304 2.906,-1.557 4.237,-0.572c1.323,0.987 1.601,2.871 0.591,4.184c-1.013,1.321 -2.893,1.576 -4.231,0.581c-1.338,-0.994 -1.594,-2.888 -0.597,-4.193Zm0.008,7.169c0.637,-1.504 2.398,-2.229 3.952,-1.616c1.544,0.612 2.292,2.363 1.648,3.898c-0.638,1.512 -2.382,2.236 -3.928,1.623c-1.545,-0.612 -2.293,-2.363 -1.672,-3.905Zm-11.011,-11.305c1.012,-1.313 2.917,-1.573 4.238,-0.579c1.323,1.002 1.585,2.871 0.574,4.182c-1.012,1.304 -2.9,1.585 -4.238,0.574c-1.33,-1.002 -1.585,-2.872 -0.574,-4.177Zm4.086,12.943c0.837,-1.575 2.838,-2.18 4.423,-1.328c1.585,0.843 2.215,2.793 1.371,4.366c-0.87,1.576 -2.838,2.164 -4.43,1.338c-1.595,-0.836 -2.206,-2.793 -1.364,-4.376Zm-8.539,-5.822c1.218,-1.719 3.632,-2.142 5.361,-0.932c1.752,1.227 2.192,3.605 0.965,5.323c-1.219,1.717 -3.642,2.139 -5.386,0.922c-1.736,-1.218 -2.167,-3.588 -0.94,-5.313Zm35.363,19.329c-1.744,-1.002 -2.333,-3.213 -1.306,-4.933c1.029,-1.715 3.274,-2.322 5.003,-1.287c1.737,1.027 2.319,3.23 1.301,4.956c-1.029,1.725 -3.261,2.292 -4.998,1.264Zm2.677,15.114c1.587,-0.476 3.283,0.398 3.784,1.964c0.495,1.568 -0.38,3.247 -1.966,3.73c-1.587,0.488 -3.283,-0.389 -3.793,-1.962c-0.502,-1.576 0.383,-3.247 1.975,-3.732Zm5.912,-5.291c-1.513,-0.985 -1.951,-2.99 -0.957,-4.484c0.989,-1.489 3.021,-1.904 4.534,-0.915c1.513,0.977 1.936,2.983 0.941,4.469c-1.004,1.489 -3.012,1.917 -4.518,0.93Zm7.56,6.46c-1.21,1.408 -3.353,1.559 -4.772,0.366c-1.417,-1.192 -1.592,-3.286 -0.389,-4.691c1.21,-1.41 3.345,-1.561 4.772,-0.368c1.426,1.201 1.594,3.293 0.389,4.693Zm-6.915,1.456c1.585,-0.5 3.283,0.389 3.786,1.957c0.493,1.574 -0.383,3.269 -1.977,3.763c-1.593,0.493 -3.305,-0.405 -3.8,-1.972c-0.503,-1.577 0.406,-3.254 1.991,-3.748Zm-6.612,-10.039c1.881,-0.589 3.896,0.437 4.493,2.3c0.589,1.862 -0.454,3.867 -2.343,4.446c-1.888,0.589 -3.894,-0.461 -4.476,-2.324c-0.589,-1.86 0.438,-3.824 2.326,-4.422Zm-7.784,2.514c2.001,-0.708 4.216,0.342 4.955,2.299c0.695,2.012 -0.334,4.176 -2.333,4.877c-2.016,0.709 -4.231,-0.352 -4.948,-2.324c-0.709,-1.98 0.327,-4.153 2.326,-4.852Zm23.957,-46.885c-1.746,-1.002 -2.326,-3.204 -1.299,-4.933c1.028,-1.716 3.259,-2.298 5.003,-1.288c1.737,1.011 2.336,3.238 1.316,4.965c-1.029,1.726 -3.283,2.282 -5.02,1.256Zm2.62,6.936c-1.506,-0.985 -1.944,-2.998 -0.931,-4.479c0.964,-1.494 3.019,-1.9 4.532,-0.913c1.515,0.978 1.936,2.99 0.933,4.47c-0.996,1.488 -3.019,1.9 -4.534,0.922Zm4.876,6.643c-0.956,1.114 -2.676,1.263 -3.816,0.312c-1.13,-0.956 -1.265,-2.651 -0.303,-3.771c0.972,-1.116 2.67,-1.242 3.808,-0.288c1.14,0.956 1.275,2.625 0.311,3.747Zm6.207,-15.313c-1.72,-0.557 -2.645,-2.411 -2.08,-4.097c0.567,-1.686 2.431,-2.616 4.142,-2.03c1.722,0.558 2.646,2.388 2.073,4.09c-0.573,1.703 -2.422,2.596 -4.135,2.037Zm-7.745,-4.518c-1.505,-0.972 -1.919,-2.983 -0.931,-4.479c0.989,-1.487 3.019,-1.902 4.532,-0.922c1.515,0.985 1.929,2.99 0.941,4.479c-0.996,1.487 -3.019,1.926 -4.542,0.922Zm3.452,10.843c-1.737,-1.027 -2.328,-3.23 -1.299,-4.956c1.027,-1.727 3.25,-2.284 4.995,-1.266c1.752,1.018 2.341,3.23 1.321,4.94c-1.019,1.71 -3.29,2.306 -5.017,1.282Zm-11.608,0.181c1.585,-0.494 3.281,0.365 3.791,1.943c0.502,1.573 -0.398,3.267 -1.975,3.754c-1.578,0.477 -3.315,-0.39 -3.801,-1.972c-0.493,-1.585 0.383,-3.23 1.985,-3.725Zm-80.624,10.851c-1.746,-1.002 -2.311,-3.254 -1.292,-4.963c1.02,-1.71 3.267,-2.269 5.02,-1.248c1.746,1.016 2.319,3.228 1.29,4.953c-1.028,1.719 -3.282,2.276 -5.018,1.258Zm-0.566,11.717c1.593,-0.492 3.298,0.397 3.801,1.972c0.493,1.567 -0.399,3.24 -1.984,3.723c-1.593,0.478 -3.274,-0.389 -3.784,-1.965c-0.51,-1.575 0.373,-3.237 1.967,-3.73Zm3.187,-4.788c-1.515,-0.978 -1.928,-2.983 -0.933,-4.47c0.989,-1.496 3.021,-1.909 4.534,-0.924c1.513,0.987 1.927,2.992 0.941,4.479c-0.996,1.486 -3.028,1.901 -4.542,0.915Zm7.193,6.22c-1.21,1.4 -3.346,1.561 -4.772,0.358c-1.425,-1.192 -1.6,-3.286 -0.39,-4.693c1.212,-1.4 3.355,-1.583 4.781,-0.389c1.425,1.201 1.585,3.316 0.381,4.724Zm3.88,-14.891c-1.706,-0.581 -2.637,-2.401 -2.072,-4.089c0.575,-1.694 2.432,-2.616 4.152,-2.059c1.713,0.579 2.653,2.393 2.078,4.095c-0.572,1.695 -2.437,2.618 -4.158,2.053Zm-7.736,-4.519c-1.496,-0.985 -1.936,-2.99 -0.931,-4.468c0.996,-1.489 3.043,-1.904 4.556,-0.917c1.515,0.98 1.929,2.992 0.933,4.479c-1.003,1.487 -3.036,1.917 -4.558,0.906Zm3.442,10.85c-1.728,-1.025 -2.309,-3.237 -1.282,-4.962c1.027,-1.719 3.283,-2.291 5.019,-1.282c1.745,1.011 2.31,3.238 1.29,4.964c-1.012,1.725 -3.274,2.275 -5.027,1.28Zm-4.739,10.311c1.6,-0.493 3.281,0.381 3.784,1.972c0.5,1.582 -0.368,3.228 -1.96,3.722c-1.593,0.495 -3.298,-0.365 -3.793,-1.94c-0.501,-1.567 0.375,-3.253 1.969,-3.754Zm-4.502,5.377c1.402,-0.86 3.273,-0.437 4.166,0.946c0.901,1.384 0.486,3.221 -0.924,4.112c-1.41,0.893 -3.281,0.439 -4.174,-0.944c-0.894,-1.386 -0.478,-3.216 0.932,-4.114Zm-2.35,-15.529c1.592,-0.491 3.275,0.382 3.783,1.959c0.51,1.574 -0.382,3.267 -1.975,3.762c-1.594,0.492 -3.29,-0.397 -3.783,-1.965c-0.503,-1.575 0.382,-3.262 1.975,-3.756Zm-3.88,12.537c1.633,-0.803 3.608,-0.159 4.414,1.441c0.796,1.599 0.142,3.547 -1.466,4.359c-1.625,0.778 -3.586,0.144 -4.398,-1.463c-0.821,-1.601 -0.174,-3.526 1.45,-4.337Zm-2.589,-9.05c2.014,-0.701 4.222,0.317 4.955,2.306c0.71,1.979 -0.327,4.169 -2.342,4.875c-2.016,0.716 -4.222,-0.35 -4.94,-2.33c-0.717,-1.983 0.319,-4.152 2.327,-4.851Zm20.554,-56.194c0.676,0.358 0.964,1.217 0.606,1.902c-0.36,0.691 -1.236,0.963 -1.938,0.595c-0.693,-0.365 -0.963,-1.217 -0.597,-1.909c0.366,-0.682 1.227,-0.93 1.929,-0.588Zm-2.47,8.773c0.693,0.336 0.948,1.194 0.597,1.871c-0.349,0.682 -1.21,0.953 -1.911,0.605c-0.702,-0.36 -0.988,-1.194 -0.613,-1.878c0.366,-0.692 1.234,-0.961 1.927,-0.598Zm20.14,5.545c-1.537,-0.492 -2.35,-2.139 -1.848,-3.635c0.503,-1.495 2.143,-2.299 3.649,-1.797c1.545,0.492 2.365,2.116 1.864,3.61c-0.502,1.498 -2.15,2.324 -3.665,1.822Zm5.226,4.234c-0.755,-0.201 -1.202,-0.965 -1.012,-1.703c0.199,-0.741 0.95,-1.178 1.705,-0.988c0.758,0.191 1.22,0.924 1.02,1.671c-0.2,0.74 -0.957,1.21 -1.713,1.02Zm-18.412,2.64c1.157,-0.358 2.422,0.262 2.79,1.415c0.366,1.155 -0.279,2.396 -1.458,2.761c-1.171,0.366 -2.415,-0.286 -2.78,-1.448c-0.368,-1.162 0.286,-2.37 1.448,-2.728Zm-14.601,-1.172c1.776,-0.634 3.727,0.274 4.364,2.039c0.639,1.765 -0.294,3.715 -2.071,4.335c-1.776,0.627 -3.736,-0.31 -4.373,-2.075c-0.638,-1.76 0.303,-3.66 2.08,-4.299Zm16.164,-32.478c1.41,-0.444 2.925,0.343 3.37,1.734c0.445,1.393 -0.344,2.88 -1.753,3.319c-1.417,0.445 -2.932,-0.343 -3.378,-1.734c-0.438,-1.393 0.342,-2.88 1.761,-3.319Zm0,28.741c-1.554,-0.889 -2.064,-2.856 -1.155,-4.374c0.915,-1.529 2.899,-2.053 4.444,-1.147c1.546,0.907 2.056,2.889 1.147,4.407c-0.907,1.529 -2.899,2.036 -4.436,1.114Zm-5.012,-2.354c2.08,0.286 3.554,2.179 3.275,4.232c-0.288,2.077 -2.191,3.516 -4.286,3.245c-2.071,-0.303 -3.562,-2.171 -3.276,-4.232c0.289,-2.068 2.201,-3.533 4.287,-3.245Zm4.493,12.775c1.426,-0.447 2.924,0.343 3.372,1.734c0.436,1.4 -0.337,2.88 -1.754,3.326c-1.409,0.437 -2.898,-0.373 -3.338,-1.765c-0.447,-1.393 0.294,-2.858 1.72,-3.295Zm2.838,-4.256c-1.34,-0.867 -1.713,-2.649 -0.847,-3.968c0.893,-1.345 2.694,-1.68 4.041,-0.812c1.338,0.867 1.696,2.649 0.82,3.968c-0.875,1.321 -2.677,1.687 -4.014,0.812Zm15.216,-16.132c-0.717,1.695 -2.677,2.49 -4.383,1.782c-1.705,-0.708 -2.508,-2.647 -1.799,-4.318c0.708,-1.679 2.675,-2.491 4.38,-1.792c1.706,0.709 2.519,2.635 1.802,4.328Zm-8.844,21.653c-1.083,1.257 -2.971,1.408 -4.229,0.334c-1.26,-1.066 -1.419,-2.935 -0.344,-4.184c1.068,-1.241 2.965,-1.402 4.231,-0.326c1.258,1.066 1.419,2.926 0.342,4.176Zm-16.547,-19.736c-1.337,-0.437 -2.032,-1.828 -1.594,-3.133c0.432,-1.313 1.825,-1.99 3.163,-1.551c1.315,0.428 2.017,1.828 1.57,3.118c-0.438,1.296 -1.823,1.988 -3.139,1.566Zm13.138,2.521c-1.339,-0.867 -1.713,-2.639 -0.82,-3.96c0.892,-1.338 2.675,-1.694 4.014,-0.819c1.347,0.867 1.73,2.656 0.845,3.97c-0.893,1.319 -2.692,1.678 -4.039,0.809Zm3.074,9.619c-1.561,-0.899 -2.047,-2.889 -1.147,-4.409c0.902,-1.526 2.884,-2.018 4.43,-1.112c1.545,0.898 2.079,2.84 1.155,4.375c-0.916,1.535 -2.901,2.028 -4.438,1.146Zm11.05,-25.384c1.443,1.297 1.53,3.507 0.207,4.931c-1.313,1.425 -3.545,1.528 -4.979,0.216c-1.441,-1.313 -1.53,-3.508 -0.207,-4.933c1.316,-1.416 3.546,-1.51 4.979,-0.214Zm-15.279,34.548c1.417,-0.448 2.899,0.325 3.354,1.725c0.447,1.4 -0.327,2.896 -1.737,3.326c-1.412,0.428 -2.932,-0.343 -3.37,-1.741c-0.447,-1.393 0.342,-2.872 1.753,-3.31Zm2.613,-30.714c1.474,-0.056 2.716,1.066 2.78,2.529c0.063,1.455 -1.068,2.697 -2.557,2.754c-1.489,0.054 -2.741,-1.068 -2.797,-2.531c-0.065,-1.465 1.099,-2.689 2.574,-2.752Zm-11.616,9.664c1.188,-0.086 2.238,0.797 2.334,1.974c0.096,1.179 -0.772,2.21 -1.975,2.308c-1.205,0.087 -2.263,-0.78 -2.367,-1.959c-0.113,-1.185 0.82,-2.234 2.008,-2.323Zm-10.022,18.87c1.705,-0.692 3.656,0.135 4.365,1.821c0.702,1.686 -0.103,3.619 -1.816,4.32c-1.712,0.692 -3.649,-0.136 -4.365,-1.823c-0.71,-1.693 0.103,-3.619 1.816,-4.318Zm22.155,-35.765c1.45,0.326 2.359,1.758 2.032,3.182c-0.319,1.431 -1.753,2.307 -3.187,2.005c-1.45,-0.319 -2.35,-1.742 -2.032,-3.175c0.32,-1.431 1.746,-2.337 3.187,-2.012Zm-7.625,11.241c1.595,0.094 2.805,1.47 2.701,3.046c-0.103,1.583 -1.45,2.776 -3.05,2.68c-1.594,-0.096 -2.828,-1.439 -2.732,-3.023c0.087,-1.583 1.481,-2.799 3.081,-2.703Zm0.128,-9.212c2.415,0.43 4.016,2.721 3.569,5.091c-0.438,2.371 -2.771,3.944 -5.169,3.507c-2.391,-0.437 -3.983,-2.704 -3.555,-5.082c0.438,-2.371 2.742,-3.946 5.155,-3.516Zm0.375,40.689c1.243,-0.805 2.908,-0.423 3.697,0.819c0.796,1.232 0.421,2.848 -0.813,3.658c-1.251,0.771 -2.916,0.398 -3.721,-0.827c-0.796,-1.224 -0.414,-2.879 0.837,-3.65Zm-12.173,-23.039c1.411,-0.437 2.932,0.343 3.369,1.736c0.448,1.393 -0.341,2.887 -1.753,3.317c-1.41,0.429 -2.923,-0.327 -3.37,-1.744c-0.445,-1.4 0.351,-2.887 1.754,-3.309Zm5.472,20.2c1.443,-0.709 3.187,-0.113 3.913,1.297c0.724,1.413 0.127,3.139 -1.299,3.84c-1.426,0.701 -3.17,0.118 -3.889,-1.297c-0.724,-1.407 -0.166,-3.134 1.275,-3.84Zm-1.114,-7.885c1.785,-0.636 3.745,0.31 4.38,2.076c0.64,1.767 -0.31,3.674 -2.086,4.296c-1.768,0.627 -3.728,-0.271 -4.365,-2.037c-0.638,-1.765 0.286,-3.698 2.071,-4.335Zm-64.674,69.827c1.768,-1.378 4.317,-1.059 5.727,0.684c1.402,1.765 1.092,4.287 -0.684,5.663c-1.777,1.384 -4.334,1.067 -5.729,-0.684c-1.393,-1.749 -1.082,-4.295 0.686,-5.663Zm160.059,34.046c-1.092,-0.281 -1.751,-1.362 -1.474,-2.435c0.288,-1.074 1.386,-1.742 2.47,-1.463c1.092,0.279 1.753,1.384 1.474,2.465c-0.278,1.082 -1.394,1.702 -2.47,1.433Zm26.521,-67.576c-0.907,-0.422 -1.991,-0.048 -2.429,0.86c-0.438,0.905 -0.031,1.981 0.876,2.418c0.909,0.435 2.008,0.015 2.438,-0.891c0.422,-0.876 0.017,-1.966 -0.885,-2.387Zm0.327,6.213c-1.123,-0.509 -2.42,-0.064 -2.932,1.035c-0.532,1.079 -0.048,2.37 1.052,2.878c1.101,0.516 2.407,0.064 2.932,-1.026c0.502,-1.066 0.04,-2.363 -1.052,-2.887Zm5.259,10.779c-1.92,-0.797 -2.836,-2.983 -2.031,-4.885c0.804,-1.9 3.002,-2.791 4.931,-1.996c1.92,0.788 2.827,2.976 2.031,4.876c-0.804,1.901 -3.003,2.791 -4.931,2.005Zm-21.79,5.488c-1.249,-0.319 -2.007,-1.6 -1.689,-2.832c0.32,-1.232 1.602,-1.988 2.836,-1.645c1.275,0.31 2.025,1.566 1.705,2.798c-0.319,1.258 -1.594,1.989 -2.852,1.679Zm-13.869,7.993c-2.168,-0.922 -3.163,-3.372 -2.264,-5.495c0.909,-2.126 3.411,-3.142 5.578,-2.244c2.158,0.908 3.178,3.382 2.261,5.505c-0.916,2.125 -3.418,3.127 -5.575,2.234Zm10.126,-0.31c-1.953,-0.524 -3.108,-2.529 -2.574,-4.446c0.534,-1.916 2.566,-3.055 4.517,-2.505c1.961,0.533 3.091,2.529 2.55,4.439c-0.527,1.925 -2.566,3.062 -4.493,2.512Zm21.008,-16.433c-2.461,-2.735 -6.701,-2.966 -9.457,-0.542c-2.757,2.428 -2.995,6.628 -0.534,9.364c2.479,2.712 6.717,2.968 9.464,0.54c2.774,-2.45 2.997,-6.624 0.527,-9.362Zm4.087,-14.405c-1.545,0.389 -3.132,-0.518 -3.522,-2.046c-0.39,-1.527 0.527,-3.079 2.064,-3.475c1.544,-0.382 3.13,0.54 3.521,2.053c0.398,1.511 -0.526,3.079 -2.063,3.468Zm-9.79,31.928c-1.253,-0.326 -2.018,-1.581 -1.698,-2.822c0.325,-1.249 1.609,-1.996 2.852,-1.686c1.259,0.348 2.014,1.597 1.696,2.831c-0.317,1.242 -1.601,2.013 -2.85,1.677Zm-7.498,-2.003c-1.585,-0.446 -2.518,-2.068 -2.072,-3.634c0.439,-1.568 2.072,-2.483 3.656,-2.046c1.587,0.445 2.503,2.075 2.08,3.636c-0.445,1.551 -2.08,2.481 -3.664,2.044Zm12.046,10.452c-1.714,-0.43 -2.749,-2.156 -2.311,-3.85c0.438,-1.695 2.191,-2.712 3.895,-2.284c1.729,0.438 2.765,2.174 2.303,3.876c-0.43,1.677 -2.174,2.688 -3.887,2.258Zm6.406,-39.256c-1.85,-0.859 -4.065,-0.071 -4.917,1.757c-0.875,1.815 -0.088,4.01 1.761,4.86c1.848,0.86 4.055,0.096 4.914,-1.748c0.878,-1.823 0.082,-3.985 -1.758,-4.869Zm-22.875,2.592c-1.099,-0.5 -2.412,-0.022 -2.906,1.043c-0.534,1.082 -0.057,2.401 1.035,2.912c1.099,0.508 2.415,0.03 2.923,-1.066c0.526,-1.059 0.04,-2.365 -1.052,-2.889Zm-5.178,8.353c-1.099,-0.502 -2.437,-0.04 -2.947,1.059c-0.502,1.064 -0.041,2.378 1.051,2.885c1.101,0.511 2.439,0.043 2.949,-1.057c0.503,-1.064 0.039,-2.361 -1.053,-2.887Zm-2.492,4.695c-1.092,-0.528 -2.423,-0.066 -2.932,1.033c-0.51,1.09 -0.056,2.371 1.051,2.889c1.108,0.507 2.422,0.063 2.932,-1.037c0.51,-1.088 0.055,-2.385 -1.051,-2.885Zm35.572,-15.544c-1.371,0.356 -2.733,-0.463 -3.093,-1.807c-0.358,-1.353 0.447,-2.727 1.818,-3.079c1.362,-0.356 2.74,0.487 3.106,1.815c0.365,1.336 -0.47,2.719 -1.831,3.071Zm-0.662,-7.605c-1.96,0.5 -3.968,-0.661 -4.461,-2.601c-0.496,-1.941 0.668,-3.922 2.629,-4.424c1.967,-0.5 3.959,0.662 4.469,2.601c0.502,1.941 -0.669,3.922 -2.637,4.424Zm-14.723,5.982c-2.621,-0.31 -4.493,-2.642 -4.182,-5.235c0.319,-2.592 2.691,-4.446 5.313,-4.129c2.612,0.312 4.478,2.673 4.168,5.258c-0.32,2.595 -2.679,4.423 -5.299,4.106Zm7.657,32.238c-2.391,-0.276 -4.12,-2.433 -3.832,-4.787c0.294,-2.378 2.444,-4.041 4.835,-3.761c2.39,0.286 4.103,2.433 3.831,4.794c-0.269,2.356 -2.446,4.042 -4.834,3.754Zm-8.876,-21.913c-2.143,2.068 -5.592,2.011 -7.673,-0.103c-2.078,-2.124 -2.054,-5.505 0.08,-7.566c2.135,-2.053 5.553,-2.012 7.648,0.096c2.096,2.116 2.079,5.503 -0.055,7.573Zm-179.387,-54.569c1.665,-0.064 3.075,1.218 3.147,2.854c0.063,1.631 -1.212,3.024 -2.877,3.086c-1.664,0.072 -3.074,-1.199 -3.155,-2.855c-0.072,-1.646 1.212,-3.022 2.885,-3.085Zm-8.844,28.523c1.809,0.113 3.18,1.664 3.075,3.439c-0.102,1.78 -1.658,3.134 -3.457,3.012c-1.809,-0.109 -3.187,-1.627 -3.084,-3.411c0.104,-1.782 1.667,-3.148 3.466,-3.04Zm17.04,-27.809c1.674,-0.134 3.117,1.1 3.259,2.747c0.144,1.645 -1.107,3.125 -2.78,3.252c-1.672,0.12 -3.147,-1.105 -3.282,-2.752c-0.136,-1.647 1.124,-3.112 2.803,-3.247Zm16.221,34.406c-1.736,-1.002 -2.342,-3.221 -1.313,-4.94c1.027,-1.727 3.281,-2.291 5.027,-1.282c1.735,1.011 2.317,3.237 1.289,4.957c-1.027,1.719 -3.257,2.291 -5.003,1.265Zm110.524,-90.541c1.331,1.201 1.427,3.277 0.191,4.614c-1.235,1.328 -3.315,1.417 -4.652,0.192c-1.347,-1.227 -1.451,-3.295 -0.217,-4.623c1.236,-1.328 3.331,-1.4 4.678,-0.183Zm-19.759,-0.477c-1.727,1.162 -4.118,0.749 -5.313,-0.963c-1.196,-1.709 -0.741,-4.057 0.973,-5.234c1.728,-1.169 4.118,-0.756 5.314,0.963c1.186,1.718 0.748,4.064 -0.974,5.234Zm6.223,12.337c-0.717,0.764 -1.927,0.812 -2.726,0.129c-0.779,-0.741 -0.811,-1.935 -0.101,-2.697c0.707,-0.773 1.927,-0.835 2.706,-0.136c0.775,0.715 0.847,1.94 0.121,2.704Zm-4.128,-9.497c1.38,0.731 1.929,2.426 1.196,3.778c-0.717,1.377 -2.43,1.917 -3.823,1.201c-1.387,-0.725 -1.905,-2.425 -1.195,-3.778c0.715,-1.385 2.437,-1.909 3.822,-1.201Zm28.506,21.573c0.757,0.396 1.045,1.335 0.67,2.084c-0.423,0.764 -1.347,1.026 -2.112,0.651c-0.774,-0.389 -1.06,-1.335 -0.668,-2.092c0.397,-0.747 1.337,-1.042 2.11,-0.643Zm6.207,2.656c0.891,0.47 1.242,1.575 0.765,2.466c-0.478,0.899 -1.578,1.218 -2.479,0.747c-0.898,-0.461 -1.251,-1.542 -0.773,-2.433c0.47,-0.891 1.586,-1.241 2.487,-0.78Zm-4.406,-9.011c-0.71,0.771 -1.944,0.833 -2.709,0.127c-0.788,-0.709 -0.846,-1.933 -0.127,-2.697c0.724,-0.764 1.929,-0.821 2.716,-0.103c0.789,0.715 0.837,1.909 0.12,2.673Zm-117.327,150.604c0.231,-1.016 1.234,-1.638 2.263,-1.415c1.028,0.224 1.665,1.218 1.434,2.236c-0.231,1.017 -1.251,1.679 -2.28,1.439c-1.018,-0.23 -1.648,-1.241 -1.417,-2.26Zm25.016,3.629c0.231,-1.026 1.234,-1.646 2.27,-1.424c1.027,0.223 1.674,1.225 1.451,2.245c-0.231,1.016 -1.244,1.669 -2.271,1.413c-1.029,-0.221 -1.674,-1.216 -1.45,-2.234Zm-65.033,-63.765c2.064,-0.859 4.453,0.08 5.347,2.116c0.89,2.037 -0.065,4.391 -2.129,5.274c-2.071,0.875 -4.461,-0.072 -5.344,-2.117c-0.893,-2.052 0.062,-4.413 2.126,-5.273Zm105.105,-69.581c-0.327,-0.317 -0.844,-0.348 -1.169,-0.038c-0.329,0.317 -0.344,0.843 -0.017,1.167c0.318,0.336 0.835,0.351 1.172,0.041c0.334,-0.317 0.341,-0.851 0.014,-1.17Zm-10.22,-9.234c0.325,0.931 -0.168,1.926 -1.101,2.25c-0.931,0.327 -1.951,-0.142 -2.286,-1.066c-0.341,-0.922 0.152,-1.933 1.09,-2.251c0.941,-0.326 1.962,0.128 2.297,1.067Zm-28.147,3.508c0.7,0.358 0.964,1.216 0.606,1.908c-0.359,0.684 -1.243,0.955 -1.936,0.59c-0.693,-0.367 -0.972,-1.217 -0.606,-1.909c0.375,-0.685 1.234,-0.939 1.936,-0.589Zm1.314,16.053c0.702,0.365 0.973,1.216 0.605,1.902c-0.365,0.692 -1.219,0.952 -1.912,0.603c-0.693,-0.35 -0.971,-1.217 -0.604,-1.909c0.349,-0.694 1.218,-0.97 1.911,-0.596Zm59.377,118.182c-0.024,-0.747 0.541,-1.352 1.282,-1.369c0.717,-0.024 1.33,0.526 1.369,1.249c0.041,0.723 -0.515,1.336 -1.265,1.386c-0.741,0.014 -1.362,-0.541 -1.386,-1.266Zm-22.124,-6.355c-0.015,-0.487 0.358,-0.876 0.844,-0.898c0.493,-0.026 0.909,0.341 0.924,0.826c0.017,0.493 -0.366,0.906 -0.852,0.932c-0.495,0.013 -0.892,-0.375 -0.916,-0.86Zm0.964,1.463c-0.901,-0.541 -2.071,-0.264 -2.614,0.636c-0.541,0.891 -0.255,2.053 0.645,2.603c0.911,0.515 2.08,0.222 2.621,-0.662c0.544,-0.882 0.248,-2.035 -0.652,-2.577Zm16.101,4.837c-0.909,-0.526 -2.063,-0.264 -2.614,0.636c-0.549,0.891 -0.246,2.027 0.654,2.568c0.9,0.542 2.071,0.264 2.613,-0.627c0.543,-0.899 0.247,-2.053 -0.653,-2.577Zm-7.465,1.09c-0.956,-1.083 -0.861,-2.704 0.216,-3.653c1.082,-0.946 2.74,-0.826 3.704,0.231c0.963,1.066 0.861,2.704 -0.216,3.653c-1.075,0.944 -2.74,0.843 -3.704,-0.231Zm15.096,-3.343c-1.201,-1.343 -1.066,-3.372 0.288,-4.549c1.354,-1.177 3.425,-1.083 4.628,0.262c1.21,1.338 1.068,3.365 -0.279,4.544c-1.345,1.184 -3.425,1.09 -4.637,-0.257Zm-49.8,-26.281c0.231,-1.028 1.236,-1.648 2.263,-1.417c1.036,0.225 1.681,1.227 1.45,2.243c-0.231,1.011 -1.236,1.631 -2.263,1.417c-1.027,-0.231 -1.681,-1.225 -1.45,-2.243Zm15.336,-2.078c-0.039,-0.939 0.685,-1.732 1.633,-1.756c0.924,-0.033 1.73,0.699 1.768,1.624c0.041,0.922 -0.676,1.693 -1.616,1.739c-0.948,0.043 -1.737,-0.658 -1.785,-1.607Zm-14.826,-28.008c-0.048,-0.882 0.646,-1.629 1.546,-1.669c0.9,-0.048 1.65,0.643 1.689,1.527c0.048,0.884 -0.669,1.631 -1.561,1.662c-0.893,0.031 -1.626,-0.644 -1.674,-1.52Zm3.602,3.653c-0.033,-0.884 0.66,-1.624 1.537,-1.648c0.908,-0.048 1.658,0.653 1.689,1.535c0.032,0.876 -0.654,1.64 -1.544,1.671c-0.895,0.032 -1.659,-0.66 -1.682,-1.558Zm11.917,32.502c0.223,-1.002 1.251,-1.677 2.28,-1.439c1.02,0.23 1.672,1.249 1.441,2.265c-0.222,0.994 -1.234,1.64 -2.271,1.419c-1.027,-0.223 -1.672,-1.234 -1.45,-2.245Zm0.432,5.394c0.39,-1.137 1.617,-1.758 2.771,-1.376c1.163,0.389 1.793,1.606 1.41,2.752c-0.382,1.145 -1.626,1.749 -2.773,1.376c-1.155,-0.382 -1.785,-1.607 -1.408,-2.752Zm72.776,-75.857c-1.268,0.797 -2.988,0.422 -3.801,-0.858c-0.813,-1.251 -0.43,-2.944 0.852,-3.739c1.292,-0.812 2.988,-0.423 3.8,0.828c0.813,1.279 0.438,2.952 -0.851,3.769Zm0.741,-14.127c-0.32,-0.317 -0.854,-0.35 -1.181,-0.031c-0.318,0.317 -0.334,0.843 -0.007,1.169c0.319,0.327 0.837,0.349 1.171,0.03c0.334,-0.308 0.327,-0.843 0.017,-1.168Zm-35.659,3.094c-0.647,-0.685 -1.722,-0.676 -2.391,-0.046c-0.661,0.636 -0.676,1.676 -0.041,2.361c0.654,0.66 1.722,0.684 2.398,0.024c0.662,-0.627 0.678,-1.679 0.034,-2.339Zm-4.717,-0.628c-1.085,-0.278 -1.753,-1.383 -1.474,-2.466c0.279,-1.081 1.402,-1.703 2.477,-1.424c1.075,0.271 1.753,1.352 1.465,2.428c-0.286,1.073 -1.378,1.741 -2.468,1.462Zm-0.589,14.151c-1.475,-0.365 -2.36,-1.861 -1.977,-3.317c0.382,-1.455 1.873,-2.315 3.346,-1.94c1.474,0.365 2.35,1.854 1.976,3.317c-0.375,1.455 -1.873,2.307 -3.345,1.94Zm-9.155,39.472c-0.621,-0.646 -1.664,-0.653 -2.294,-0.041c-0.638,0.613 -0.669,1.631 -0.049,2.26c0.623,0.636 1.65,0.659 2.295,0.048c0.645,-0.605 0.671,-1.616 0.048,-2.267Zm-7.88,-48.101c-1.082,-0.281 -1.729,-1.4 -1.457,-2.459c0.271,-1.067 1.395,-1.744 2.487,-1.456c1.082,0.27 1.727,1.376 1.457,2.459c-0.279,1.074 -1.402,1.725 -2.487,1.456Zm0.893,-16.199c-0.325,-0.324 -0.835,-0.341 -1.162,-0.022c-0.318,0.319 -0.351,0.827 -0.034,1.153c0.327,0.334 0.845,0.351 1.181,0.039c0.334,-0.318 0.342,-0.843 0.015,-1.17Zm-22.036,67.004c-0.851,-0.214 -1.37,-1.064 -1.154,-1.909c0.214,-0.841 1.097,-1.352 1.951,-1.146c0.844,0.216 1.363,1.074 1.147,1.911c-0.214,0.842 -1.099,1.358 -1.944,1.144Zm-3.283,-6.491c-0.142,-1.742 1.164,-3.247 2.916,-3.38c1.762,-0.136 3.314,1.153 3.458,2.88c0.144,1.758 -1.171,3.276 -2.932,3.411c-1.76,0.136 -3.297,-1.168 -3.442,-2.911Zm-11.112,-11.565c-0.765,-0.192 -1.22,-0.922 -1.02,-1.671c0.19,-0.74 0.955,-1.209 1.712,-1.019c0.758,0.2 1.203,0.963 1.013,1.701c-0.2,0.734 -0.948,1.179 -1.705,0.989Zm12.093,-0.948c-1.084,-0.277 -1.736,-1.351 -1.465,-2.433c0.278,-1.081 1.401,-1.734 2.485,-1.456c1.092,0.279 1.744,1.352 1.465,2.433c-0.269,1.083 -1.402,1.734 -2.485,1.456Zm-7.561,-9.6c-0.741,-0.192 -1.194,-0.956 -1.004,-1.703c0.183,-0.74 0.957,-1.179 1.706,-0.987c0.748,0.185 1.186,0.954 1.005,1.696c-0.185,0.737 -0.957,1.177 -1.707,0.994Zm10.987,-6.763c-1.292,-0.326 -2.081,-1.631 -1.744,-2.918c0.341,-1.29 1.664,-2.061 2.963,-1.727c1.297,0.327 2.079,1.647 1.752,2.919c-0.335,1.274 -1.672,2.053 -2.971,1.726Zm-5.545,-2.354c-1.084,-0.278 -1.736,-1.383 -1.45,-2.457c0.286,-1.075 1.371,-1.719 2.454,-1.441c1.091,0.279 1.76,1.367 1.481,2.441c-0.271,1.083 -1.395,1.736 -2.485,1.457Zm-64.69,-38.604c1.313,0.009 2.35,1.09 2.342,2.378c-0.024,1.289 -1.082,2.324 -2.374,2.298c-1.323,-0.022 -2.359,-1.073 -2.35,-2.346c0.015,-1.281 1.075,-2.338 2.382,-2.33Zm8.969,47.059c2.343,0.31 4,2.451 3.682,4.765c-0.295,2.315 -2.455,3.929 -4.803,3.612c-2.343,-0.303 -4.007,-2.45 -3.697,-4.765c0.303,-2.314 2.477,-3.92 4.818,-3.612Zm5.092,14.359c1.585,-0.476 3.274,0.398 3.784,1.972c0.502,1.577 -0.375,3.23 -1.968,3.724c-1.592,0.493 -3.281,-0.389 -3.784,-1.966c-0.495,-1.566 0.374,-3.245 1.968,-3.73Zm35.262,27.466c0.301,-1.326 1.648,-2.162 2.995,-1.867c1.337,0.303 2.191,1.614 1.895,2.95c-0.294,1.33 -1.633,2.173 -2.98,1.87c-1.338,-0.295 -2.206,-1.616 -1.91,-2.953Zm-6.311,4.647c0.812,-1.655 2.821,-2.385 4.509,-1.576c1.689,0.805 2.398,2.801 1.602,4.463c-0.796,1.664 -2.804,2.37 -4.502,1.584c-1.696,-0.796 -2.406,-2.776 -1.609,-4.471Zm-1.02,-79.991c1.108,0.572 1.537,1.917 0.957,3.007c-0.573,1.079 -1.922,1.502 -3.028,0.928c-1.107,-0.579 -1.545,-1.908 -0.979,-3.013c0.572,-1.097 1.943,-1.505 3.05,-0.922Zm46.663,13.044c-0.32,-0.334 -0.847,-0.341 -1.172,-0.04c-0.327,0.302 -0.343,0.843 -0.016,1.169c0.327,0.328 0.861,0.328 1.188,0.009c0.317,-0.319 0.327,-0.81 0,-1.138Zm10.307,2.69c-1.083,-0.271 -1.744,-1.352 -1.465,-2.433c0.271,-1.076 1.402,-1.727 2.486,-1.45c1.092,0.278 1.745,1.354 1.466,2.435c-0.279,1.073 -1.403,1.724 -2.487,1.448Zm17.782,1.001c-1.131,1.218 -3.019,1.281 -4.253,0.168c-1.227,-1.123 -1.323,-3.016 -0.192,-4.215c1.123,-1.203 3.043,-1.282 4.27,-0.16c1.226,1.121 1.308,2.992 0.175,4.207Zm25.136,12.362c-1.052,0.668 -2.478,0.365 -3.147,-0.692c-0.67,-1.05 -0.375,-2.411 0.701,-3.086c1.067,-0.668 2.47,-0.358 3.148,0.692c0.669,1.057 0.358,2.427 -0.702,3.086Zm6.119,17.491c-0.9,-0.54 -2.057,-0.236 -2.598,0.646c-0.534,0.884 -0.255,2.051 0.645,2.601c0.901,0.541 2.063,0.214 2.605,-0.668c0.541,-0.883 0.247,-2.038 -0.652,-2.579Zm-2.105,-2.099c-1.768,0.351 -3.488,-0.762 -3.855,-2.514c-0.374,-1.749 0.74,-3.461 2.525,-3.819c1.777,-0.356 3.505,0.773 3.872,2.522c0.366,1.758 -0.781,3.461 -2.542,3.811Zm-14.052,9.061c-0.988,-0.206 -1.626,-1.195 -1.402,-2.189c0.214,-0.993 1.227,-1.614 2.206,-1.384c1.012,0.216 1.65,1.21 1.419,2.197c-0.231,0.995 -1.212,1.59 -2.223,1.376Zm7.871,0.406c-1.1,-0.511 -2.406,-0.057 -2.916,1.041c-0.534,1.083 -0.055,2.403 1.044,2.911c1.099,0.511 2.429,0.026 2.939,-1.057c0.518,-1.074 0.024,-2.378 -1.067,-2.895Zm-40.408,-0.295c-1.33,-1.114 -3.321,-0.946 -4.445,0.367c-1.123,1.312 -0.933,3.276 0.383,4.383c1.33,1.113 3.322,0.945 4.438,-0.343c1.121,-1.313 0.962,-3.293 -0.376,-4.407Zm10.396,-65.467c0.296,2.291 -1.354,4.366 -3.687,4.654c-2.335,0.279 -4.462,-1.337 -4.758,-3.652c-0.286,-2.299 1.371,-4.398 3.705,-4.669c2.328,-0.286 4.437,1.378 4.74,3.667Zm-13.693,8.12c-1.523,-0.985 -1.937,-3.014 -0.926,-4.501c0.988,-1.487 3.004,-1.892 4.526,-0.891c1.506,0.971 1.935,2.99 0.932,4.479c-0.996,1.487 -3.01,1.909 -4.532,0.913Zm-41.268,54.444c-1.506,-0.978 -1.953,-2.993 -0.948,-4.479c0.996,-1.487 3.026,-1.893 4.532,-0.923c1.515,1.002 1.96,2.998 0.957,4.487c-1.005,1.488 -3.028,1.9 -4.541,0.915Zm7.369,-18.846c-1.515,-0.978 -1.928,-2.983 -0.933,-4.477c0.981,-1.489 3.027,-1.902 4.534,-0.915c1.497,0.979 1.927,2.983 0.931,4.477c-0.986,1.489 -3.019,1.904 -4.532,0.915Zm-45.554,9.865c-1.522,-0.97 -1.929,-2.982 -0.94,-4.479c0.996,-1.486 3.026,-1.901 4.541,-0.915c1.506,0.986 1.929,2.983 0.931,4.479c-0.986,1.489 -3.019,1.884 -4.532,0.915Zm27.683,27.396c-0.151,-1.837 1.227,-3.451 3.084,-3.602c1.857,-0.146 3.506,1.225 3.658,3.062c0.151,1.828 -1.236,3.444 -3.1,3.586c-1.864,0.135 -3.49,-1.216 -3.642,-3.046Zm5.946,13.554c-0.161,-1.829 1.225,-3.435 3.098,-3.587c1.864,-0.151 3.488,1.216 3.64,3.046c0.144,1.837 -1.251,3.446 -3.099,3.597c-1.856,0.142 -3.49,-1.219 -3.639,-3.056Zm15.565,-46.281c-1.085,-0.276 -1.729,-1.398 -1.458,-2.466c0.272,-1.065 1.403,-1.725 2.494,-1.446c1.083,0.278 1.728,1.376 1.451,2.457c-0.279,1.073 -1.403,1.726 -2.487,1.455Zm20.579,-36.487c-1.091,-0.278 -1.762,-1.368 -1.49,-2.442c0.279,-1.081 1.402,-1.736 2.492,-1.455c1.084,0.276 1.738,1.383 1.452,2.457c-0.288,1.075 -1.371,1.712 -2.454,1.44Zm15.558,21.104c-1.099,-0.278 -1.76,-1.361 -1.481,-2.442c0.279,-1.074 1.395,-1.725 2.485,-1.448c1.084,0.271 1.77,1.361 1.481,2.435c-0.286,1.073 -1.402,1.734 -2.485,1.455Zm3.729,1.018c-0.606,-0.627 -1.609,-0.651 -2.238,-0.055c-0.63,0.596 -0.646,1.598 -0.025,2.21c0.606,0.646 1.618,0.662 2.239,0.057c0.622,-0.607 0.63,-1.592 0.024,-2.212Zm-2.382,2.943c-0.923,-0.956 -2.462,-0.978 -3.425,-0.056c-0.964,0.908 -0.988,2.443 -0.048,3.398c0.916,0.954 2.461,0.978 3.425,0.063c0.965,-0.906 0.979,-2.45 0.048,-3.405Zm-5.625,1.536c0.822,-2.173 -0.294,-4.575 -2.485,-5.403c-2.199,-0.826 -4.638,0.264 -5.475,2.435c-0.827,2.171 0.296,4.573 2.487,5.402c2.199,0.828 4.645,-0.262 5.473,-2.434Zm-1.307,-9.006c0.75,-1.933 -0.231,-4.073 -2.174,-4.811c-1.936,-0.747 -4.118,0.222 -4.868,2.148c-0.739,1.924 0.231,4.064 2.176,4.811c1.944,0.741 4.126,-0.222 4.866,-2.148Zm-28.401,35.089c-2.175,0.867 -4.643,-0.159 -5.521,-2.315c-0.883,-2.155 0.152,-4.605 2.326,-5.472c2.167,-0.869 4.652,0.183 5.537,2.323c0.885,2.14 -0.175,4.589 -2.342,5.464Zm-43.474,-3.341c-1.211,1.408 -3.33,1.575 -4.756,0.373c-1.426,-1.192 -1.602,-3.293 -0.392,-4.693c1.22,-1.399 3.331,-1.566 4.75,-0.373c1.417,1.194 1.6,3.293 0.398,4.693Zm113.112,-6.213c-1.275,0.961 -3.084,0.725 -4.048,-0.516c-0.962,-1.249 -0.732,-3.039 0.534,-3.985c1.267,-0.956 3.084,-0.725 4.048,0.516c0.955,1.249 0.733,3.029 -0.534,3.985Zm4.358,8.584c-2.198,1.272 -5.029,0.54 -6.326,-1.607c-1.298,-2.188 -0.565,-4.964 1.626,-6.246c2.182,-1.279 5.011,-0.57 6.3,1.608c1.306,2.157 0.591,4.972 -1.6,6.245Zm1.569,-13.731c-2.079,1.616 -5.066,1.264 -6.709,-0.811c-1.623,-2.028 -1.274,-4.989 0.799,-6.595c2.063,-1.607 5.066,-1.28 6.708,0.773c1.641,2.053 1.273,5.01 -0.798,6.633Zm-46.781,-1.623c0.772,-1.607 0.089,-3.547 -1.561,-4.295c-1.634,-0.763 -3.577,-0.088 -4.359,1.552c-0.779,1.597 -0.072,3.523 1.563,4.294c1.632,0.766 3.585,0.056 4.357,-1.551Zm9.33,-2.068c0.31,-1.756 -0.861,-3.461 -2.646,-3.761c-1.792,-0.31 -3.481,0.85 -3.8,2.601c-0.318,1.758 0.861,3.444 2.645,3.761c1.778,0.319 3.474,-0.843 3.801,-2.601Zm-0.758,7.757c0.438,-1.933 -0.789,-3.898 -2.756,-4.337c-1.96,-0.467 -3.935,0.758 -4.39,2.704c-0.454,1.95 0.765,3.867 2.733,4.33c1.976,0.452 3.951,-0.756 4.413,-2.697Zm-4.134,7.095c0.502,-2.179 -0.869,-4.359 -3.067,-4.861c-2.199,-0.502 -4.39,0.852 -4.909,3.024c-0.508,2.178 0.877,4.368 3.069,4.868c2.205,0.501 4.397,-0.853 4.907,-3.031Zm-0.311,-43.965c-1.712,-0.565 -2.636,-2.378 -2.071,-4.088c0.565,-1.712 2.415,-2.627 4.135,-2.068c1.703,0.579 2.636,2.402 2.071,4.097c-0.565,1.686 -2.422,2.63 -4.135,2.059Zm14.324,5.617c-1.085,-0.281 -1.768,-1.369 -1.482,-2.444c0.287,-1.074 1.395,-1.725 2.487,-1.449c1.083,0.281 1.759,1.393 1.473,2.467c-0.287,1.073 -1.394,1.703 -2.478,1.426Zm0.558,-5.944c-2.151,-0.915 -3.18,-3.355 -2.271,-5.495c0.917,-2.142 3.411,-3.144 5.578,-2.243c2.158,0.905 3.154,3.401 2.254,5.528c-0.909,2.123 -3.418,3.125 -5.561,2.21Zm-24.688,-1.607c-1.506,-0.985 -1.913,-3.023 -0.924,-4.508c0.994,-1.489 3.011,-1.88 4.523,-0.893c1.514,0.985 1.962,3 0.957,4.486c-0.996,1.487 -3.043,1.893 -4.556,0.915Zm3.081,6.802c-1.727,-1.026 -2.326,-3.239 -1.289,-4.955c1.019,-1.729 3.259,-2.308 5.003,-1.29c1.753,1.017 2.342,3.245 1.313,4.965c-1.027,1.726 -3.281,2.282 -5.027,1.28Zm12.676,-9.268c-1.936,-0.795 -2.836,-2.981 -2.03,-4.883c0.796,-1.902 3.002,-2.793 4.921,-1.996c1.922,0.786 2.838,2.974 2.033,4.876c-0.804,1.9 -2.995,2.8 -4.924,2.003Zm-3.17,13.254c-1.937,-1.14 -2.581,-3.604 -1.451,-5.514c1.14,-1.909 3.673,-2.56 5.609,-1.424c1.944,1.146 2.581,3.621 1.427,5.538c-1.155,1.924 -3.634,2.546 -5.585,1.4Zm-76.21,18.645c-1.72,-0.557 -2.644,-2.402 -2.079,-4.09c0.573,-1.693 2.413,-2.625 4.142,-2.035c1.696,0.548 2.644,2.395 2.071,4.096c-0.565,1.702 -2.422,2.595 -4.134,2.029Zm-7.512,-3.024c-1.506,-0.97 -1.929,-2.99 -0.941,-4.477c0.996,-1.488 3.026,-1.902 4.541,-0.922c1.506,0.985 1.927,2.99 0.932,4.477c-0.989,1.496 -3.036,1.917 -4.532,0.922Zm3.783,10.851c-1.736,-1.027 -2.318,-3.237 -1.291,-4.955c1.029,-1.727 3.259,-2.284 4.996,-1.265c1.736,1.011 2.326,3.221 1.306,4.932c-1.027,1.71 -3.274,2.316 -5.011,1.288Zm35.293,3.35c-2.446,-0.972 -3.634,-3.739 -2.662,-6.148c0.972,-2.411 3.745,-3.581 6.199,-2.611c2.462,0.978 3.658,3.699 2.677,6.127c-0.98,2.424 -3.769,3.602 -6.214,2.632Zm81.803,52.724c-1.713,-0.557 -2.629,-2.404 -2.073,-4.097c0.558,-1.695 2.424,-2.585 4.137,-2.029c1.72,0.557 2.651,2.394 2.078,4.089c-0.573,1.701 -2.422,2.592 -4.142,2.037Zm13.09,5.75c-1.085,-0.271 -1.737,-1.352 -1.467,-2.435c0.279,-1.074 1.402,-1.732 2.486,-1.446c1.091,0.271 1.737,1.376 1.458,2.457c-0.281,1.073 -1.387,1.703 -2.477,1.424Zm-115.638,19.004c0.334,-1.806 2.095,-2.997 3.942,-2.665c1.85,0.326 3.052,2.077 2.701,3.883c-0.334,1.804 -2.086,3.029 -3.942,2.697c-1.826,-0.36 -3.028,-2.101 -2.701,-3.915Zm9.52,-1.44c0.214,-0.995 1.234,-1.639 2.263,-1.415c1.027,0.223 1.672,1.232 1.449,2.243c-0.231,1.002 -1.244,1.662 -2.278,1.441c-1.02,-0.248 -1.665,-1.251 -1.434,-2.269Zm41.347,-3.93c-0.892,-0.533 -2.047,-0.252 -2.588,0.644c-0.551,0.891 -0.257,2.031 0.652,2.572c0.876,0.531 2.064,0.26 2.614,-0.629c0.525,-0.908 0.215,-2.046 -0.678,-2.587Zm-8.461,0.327c-0.542,-1.511 0.262,-3.197 1.808,-3.73c1.523,-0.541 3.211,0.253 3.769,1.765c0.549,1.518 -0.262,3.206 -1.784,3.738c-1.547,0.533 -3.243,-0.262 -3.793,-1.773Zm-7.577,-9.888c-0.907,-0.55 -2.062,-0.271 -2.612,0.629c-0.542,0.899 -0.248,2.035 0.654,2.577c0.899,0.532 2.062,0.262 2.612,-0.638c0.541,-0.889 0.248,-2.026 -0.654,-2.568Zm86.281,-97.674c-2.127,2.059 -5.561,2.042 -7.665,-0.072c-2.094,-2.118 -2.046,-5.523 0.096,-7.591c2.135,-2.068 5.553,-2.027 7.648,0.096c2.096,2.123 2.04,5.504 -0.079,7.567Zm0.748,-20.548c-1.21,1.407 -3.346,1.568 -4.772,0.365c-1.426,-1.194 -1.592,-3.293 -0.39,-4.693c1.212,-1.4 3.339,-1.583 4.78,-0.389c1.411,1.208 1.587,3.316 0.382,4.717Zm1.792,26.647c-1.241,0.852 -2.97,0.525 -3.822,-0.714c-0.869,-1.235 -0.558,-2.906 0.693,-3.764c1.25,-0.867 2.978,-0.548 3.839,0.685c0.861,1.232 0.534,2.949 -0.71,3.793Zm-162.265,66.725c3.942,-1.686 8.517,0.125 10.205,4.047c1.696,3.907 -0.134,8.442 -4.079,10.096c-3.952,1.67 -8.532,-0.151 -10.23,-4.049c-1.696,-3.898 0.135,-8.417 4.104,-10.094Zm-1.427,-14.549c1.013,-0.757 2.447,-0.574 3.211,0.437c0.782,1.018 0.573,2.435 -0.447,3.189c-1.01,0.757 -2.453,0.557 -3.225,-0.444c-0.775,-1.004 -0.551,-2.426 0.461,-3.182Zm57.384,21c0.216,-0.994 1.234,-1.638 2.264,-1.415c1.036,0.221 1.681,1.232 1.45,2.236c-0.224,1.007 -1.251,1.686 -2.271,1.446c-1.027,-0.238 -1.674,-1.249 -1.443,-2.267Zm100.66,0.898c-3.362,-2.584 -3.966,-7.366 -1.361,-10.668c2.605,-3.309 7.449,-3.888 10.802,-1.311c3.346,2.577 3.943,7.342 1.34,10.66c-2.605,3.317 -7.418,3.896 -10.781,1.319Zm-96.667,-129.222c0.144,1.852 -1.244,3.458 -3.1,3.586c-1.855,0.168 -3.488,-1.209 -3.64,-3.046c-0.151,-1.83 1.251,-3.477 3.106,-3.619c1.849,-0.144 3.482,1.232 3.634,3.079Zm-8.78,-7.676c1.903,2.481 1.401,6.004 -1.075,7.873c-2.487,1.878 -6.032,1.393 -7.935,-1.074c-1.912,-2.473 -1.45,-5.989 1.044,-7.858c2.492,-1.869 6.054,-1.4 7.966,1.059Zm-56.62,105.468c2.143,-0.659 4.397,0.511 5.075,2.627c0.668,2.092 -0.501,4.335 -2.629,4.979c-2.127,0.66 -4.405,-0.526 -5.076,-2.623c-0.668,-2.102 0.52,-4.337 2.63,-4.983Zm-10.89,3.83c3.584,-1.522 7.76,0.132 9.297,3.682c1.546,3.554 -0.12,7.676 -3.712,9.194c-3.593,1.52 -7.761,-0.135 -9.298,-3.682c-1.545,-3.557 0.12,-7.676 3.713,-9.194Zm161.972,-56.552c-0.733,0.795 -1.936,0.835 -2.725,0.12c-0.789,-0.709 -0.837,-1.917 -0.12,-2.697c0.719,-0.781 1.929,-0.812 2.718,-0.104c0.781,0.716 0.851,1.917 0.127,2.681Zm5.33,23.784c0.152,1.837 -1.243,3.444 -3.091,3.588c-1.856,0.142 -3.499,-1.218 -3.65,-3.046c-0.143,-1.837 1.243,-3.444 3.1,-3.59c1.855,-0.149 3.49,1.22 3.641,3.048Zm-59.767,-23.187c0.351,1.153 -0.303,2.378 -1.458,2.753c-1.18,0.365 -2.422,-0.281 -2.78,-1.441c-0.366,-1.169 0.262,-2.38 1.426,-2.737c1.155,-0.357 2.422,0.28 2.812,1.425Zm-9.744,97.245c-0.9,-0.524 -2.062,-0.262 -2.612,0.636c-0.542,0.893 -0.248,2.03 0.652,2.579c0.909,0.541 2.073,0.262 2.614,-0.636c0.542,-0.893 0.255,-2.046 -0.654,-2.579Zm3.507,-117.498c2.485,-1.933 6.117,-1.503 8.086,0.947c1.974,2.473 1.538,6.037 -0.964,7.985c-2.485,1.91 -6.104,1.504 -8.07,-0.977c-1.962,-2.443 -1.532,-6.023 0.948,-7.955Zm-14.174,106.138c0.382,-1.136 1.633,-1.739 2.789,-1.359c1.162,0.381 1.776,1.599 1.393,2.745c-0.389,1.136 -1.624,1.748 -2.78,1.366c-1.147,-0.38 -1.785,-1.606 -1.402,-2.752Zm64.881,-31.205c-0.891,-0.533 -2.079,-0.247 -2.62,0.636c-0.536,0.882 -0.255,2.061 0.66,2.577c0.901,0.541 2.065,0.255 2.606,-0.634c0.549,-0.9 0.239,-2.039 -0.646,-2.579Zm16.238,-10.03c-1.102,-0.502 -2.415,-0.033 -2.925,1.057c-0.517,1.066 -0.048,2.38 1.051,2.895c1.099,0.51 2.415,0.025 2.949,-1.058c0.493,-1.073 0.015,-2.37 -1.075,-2.894Zm32.137,-28.558c-1.186,-1.304 -3.211,-1.415 -4.526,-0.255c-1.314,1.161 -1.417,3.144 -0.239,4.448c1.179,1.304 3.202,1.439 4.518,0.269c1.315,-1.153 1.409,-3.167 0.247,-4.462Zm-86.998,18.178c-0.861,-0.932 -2.333,-1.02 -3.297,-0.168c-0.965,0.85 -1.052,2.299 -0.191,3.26c0.852,0.955 2.358,1.011 3.313,0.167c0.957,-0.835 1.044,-2.298 0.175,-3.259Zm11.313,-11.672c-0.621,-0.651 -1.648,-0.651 -2.295,-0.048c-0.645,0.605 -0.652,1.64 -0.024,2.277c0.623,0.627 1.643,0.651 2.297,0.038c0.635,-0.603 0.644,-1.623 0.022,-2.267Zm4.478,-4.923c-1.147,-1.153 -3.043,-1.218 -4.223,-0.096c-1.172,1.131 -1.203,3.016 -0.063,4.176c1.147,1.161 3.026,1.186 4.214,0.065c1.179,-1.124 1.21,-2.983 0.072,-4.145Zm1.657,-3.882c-0.654,-0.651 -1.722,-0.677 -2.383,-0.047c-0.669,0.629 -0.693,1.702 -0.039,2.363c0.645,0.658 1.72,0.682 2.382,0.046c0.669,-0.627 0.685,-1.701 0.04,-2.362Zm-13.433,2.491c-0.327,-0.327 -0.852,-0.336 -1.155,-0.026c-0.327,0.303 -0.358,0.836 -0.031,1.162c0.318,0.327 0.852,0.319 1.186,0.008c0.336,-0.318 0.327,-0.818 0,-1.144Zm40.503,40.593c-1.297,-0.771 -2.995,-0.369 -3.776,0.915c-0.78,1.28 -0.359,2.974 0.957,3.745c1.282,0.789 2.98,0.374 3.76,-0.923c0.788,-1.287 0.358,-2.96 -0.941,-3.737Zm-41.696,-113.681c-0.017,1.708 -1.427,3.079 -3.163,3.07c-1.722,-0.032 -3.108,-1.415 -3.101,-3.142c0.024,-1.695 1.418,-3.055 3.156,-3.047c1.727,0.009 3.122,1.416 3.108,3.119Zm4.628,6.283c0.62,1.727 -0.279,3.636 -2.04,4.249c-1.761,0.619 -3.697,-0.288 -4.334,-2.02c-0.636,-1.736 0.295,-3.636 2.039,-4.258c1.754,-0.62 3.705,0.295 4.335,2.029Zm-11.95,-6.619c0.159,1.823 -1.236,3.43 -3.1,3.588c-1.855,0.159 -3.481,-1.241 -3.625,-3.079c-0.152,-1.828 1.228,-3.434 3.091,-3.586c1.866,-0.127 3.49,1.225 3.634,3.077Zm9.503,35.478c0.303,2.293 -1.354,4.4 -3.672,4.686c-2.326,0.278 -4.477,-1.345 -4.756,-3.651c-0.279,-2.299 1.378,-4.391 3.697,-4.677c2.324,-0.278 4.438,1.343 4.731,3.642Zm38.966,-19.543c1.347,1.225 1.434,3.293 0.198,4.614c-1.234,1.319 -3.32,1.415 -4.652,0.19c-1.337,-1.216 -1.45,-3.301 -0.214,-4.621c1.227,-1.321 3.329,-1.408 4.668,-0.183Zm-101.083,28.023c2.071,0.685 3.196,2.872 2.502,4.916c-0.684,2.046 -2.923,3.158 -4.979,2.474c-2.088,-0.675 -3.209,-2.88 -2.526,-4.923c0.693,-2.044 2.94,-3.142 5.003,-2.467Zm12.683,108.923c0.231,-1.009 1.236,-1.647 2.271,-1.414c1.029,0.221 1.674,1.232 1.45,2.234c-0.223,1.01 -1.267,1.678 -2.278,1.448c-1.012,-0.231 -1.666,-1.264 -1.443,-2.268Zm6.725,-0.501c-0.072,-1.629 1.203,-3.022 2.875,-3.085c1.674,-0.064 3.084,1.209 3.148,2.854c0.071,1.64 -1.226,3.048 -2.884,3.12c-1.666,0.064 -3.076,-1.225 -3.139,-2.889Zm13.105,0.415c-0.152,-1.854 1.251,-3.461 3.131,-3.612c1.881,-0.151 3.489,1.234 3.649,3.088c0.159,1.852 -1.236,3.468 -3.107,3.619c-1.872,0.151 -3.514,-1.241 -3.673,-3.095Zm-11.758,-13.642c0.231,-1.026 1.234,-1.647 2.271,-1.424c1.027,0.221 1.679,1.225 1.448,2.243c-0.231,1.018 -1.234,1.646 -2.27,1.415c-1.028,-0.223 -1.68,-1.217 -1.449,-2.234Zm-4.192,7.438c-0.286,-1.354 0.582,-2.658 1.944,-2.937c1.363,-0.286 2.71,0.605 2.987,1.95c0.279,1.343 -0.596,2.664 -1.958,2.928c-1.362,0.262 -2.677,-0.598 -2.973,-1.941Zm13.162,-10.214c-0.079,-1.655 1.227,-3.04 2.891,-3.086c1.658,-0.08 3.075,1.2 3.148,2.855c0.08,1.646 -1.211,3.022 -2.869,3.086c-1.664,0.072 -3.091,-1.21 -3.17,-2.855Zm0.606,-8.473c0.079,-1.417 1.33,-2.498 2.764,-2.418c1.433,0.071 2.542,1.313 2.461,2.737c-0.08,1.415 -1.314,2.498 -2.764,2.426c-1.441,-0.079 -2.542,-1.321 -2.461,-2.745Zm-10.812,38.54c0.224,-1 1.244,-1.662 2.278,-1.446c1.029,0.23 1.657,1.263 1.434,2.274c-0.222,1.004 -1.234,1.638 -2.261,1.415c-1.028,-0.221 -1.682,-1.232 -1.451,-2.243Zm6.827,-26.647c0.399,-1.146 1.626,-1.758 2.78,-1.376c1.148,0.382 1.787,1.623 1.404,2.752c-0.375,1.131 -1.625,1.758 -2.806,1.384c-1.147,-0.391 -1.768,-1.624 -1.378,-2.76Zm-0.676,7.287c0.565,-1.687 2.438,-2.624 4.151,-2.054c1.713,0.574 2.644,2.404 2.071,4.09c-0.574,1.719 -2.437,2.633 -4.151,2.061c-1.713,-0.572 -2.637,-2.404 -2.071,-4.097Zm-14.389,0.653c0.231,-1.004 1.251,-1.64 2.287,-1.41c1.028,0.223 1.665,1.242 1.451,2.236c-0.231,1.026 -1.268,1.662 -2.304,1.439c-0.996,-0.245 -1.672,-1.264 -1.434,-2.265Zm10.461,-16.468c-0.207,-2.411 1.618,-4.535 4.063,-4.725c2.438,-0.191 4.548,1.607 4.757,4.016c0.207,2.421 -1.602,4.513 -4.048,4.693c-2.446,0.192 -4.565,-1.573 -4.772,-3.984Zm-5.321,-0.81c-0.096,-1.124 0.748,-2.118 1.905,-2.219c1.145,-0.096 2.158,0.747 2.254,1.883c0.101,1.138 -0.749,2.147 -1.912,2.236c-1.157,0.103 -2.16,-0.755 -2.247,-1.9Zm7.839,-9.491c-0.231,-2.935 1.968,-5.521 4.955,-5.759c2.987,-0.238 5.626,1.966 5.862,4.916c0.231,2.951 -1.99,5.545 -4.986,5.776c-2.971,0.214 -5.585,-1.965 -5.831,-4.933Zm-3.593,-6.8c-0.143,-1.736 1.178,-3.271 2.932,-3.405c1.76,-0.135 3.314,1.153 3.449,2.911c0.151,1.726 -1.171,3.254 -2.932,3.405c-1.768,0.151 -3.305,-1.169 -3.449,-2.911Zm-7.592,7.525c-0.247,-2.848 1.91,-5.348 4.794,-5.579c2.886,-0.23 5.427,1.888 5.658,4.743c0.23,2.854 -1.913,5.344 -4.797,5.575c-2.884,0.223 -5.409,-1.9 -5.655,-4.739Zm-5.036,-11.329c-0.039,-0.843 0.637,-1.599 1.507,-1.623c0.867,-0.029 1.624,0.629 1.665,1.489c0.031,0.867 -0.647,1.623 -1.522,1.662c-0.869,0.04 -1.619,-0.644 -1.65,-1.528Zm6.908,-0.66c-0.152,-1.83 1.234,-3.429 3.091,-3.579c1.864,-0.168 3.49,1.216 3.648,3.048c0.145,1.844 -1.25,3.466 -3.115,3.61c-1.864,0.144 -3.48,-1.242 -3.624,-3.079Zm-5.227,4.885c-0.144,-1.839 1.243,-3.437 3.1,-3.588c1.855,-0.168 3.481,1.225 3.64,3.045c0.151,1.847 -1.251,3.47 -3.108,3.612c-1.855,0.152 -3.48,-1.241 -3.632,-3.069Zm0.382,-7.169c-0.062,-1.319 0.981,-2.472 2.319,-2.512c1.338,-0.039 2.47,0.963 2.526,2.298c0.055,1.338 -0.972,2.457 -2.319,2.513c-1.347,0.05 -2.461,-0.978 -2.526,-2.299Zm-4.014,8.132c-0.041,-0.877 0.637,-1.614 1.53,-1.648c0.892,-0.033 1.672,0.62 1.705,1.511c0.022,0.891 -0.671,1.655 -1.547,1.672c-0.892,0.047 -1.657,-0.661 -1.688,-1.535Zm4.541,-12.777c-0.057,-0.883 0.636,-1.621 1.537,-1.669c0.892,-0.048 1.657,0.651 1.698,1.535c0.046,0.881 -0.671,1.63 -1.57,1.671c-0.893,0.024 -1.634,-0.653 -1.665,-1.537Zm-30.576,-0.04c1.592,-0.491 3.273,0.391 3.783,1.966c0.51,1.574 -0.382,3.252 -1.975,3.754c-1.594,0.494 -3.307,-0.406 -3.8,-1.972c-0.503,-1.575 0.397,-3.254 1.992,-3.748Zm-20.316,-19.06c1.778,-0.349 3.514,0.773 3.88,2.524c0.366,1.75 -0.781,3.444 -2.55,3.802c-1.769,0.365 -3.506,-0.764 -3.855,-2.506c-0.368,-1.758 0.748,-3.477 2.525,-3.82Zm-3.091,8.115c1.959,-0.493 3.96,0.677 4.46,2.601c0.503,1.926 -0.659,3.89 -2.619,4.392c-1.97,0.5 -3.969,-0.662 -4.462,-2.601c-0.503,-1.942 0.661,-3.907 2.621,-4.392Zm2.151,8.629c1.919,-0.776 4.125,0.146 4.916,2.046c0.78,1.902 -0.137,4.09 -2.065,4.87c-1.92,0.777 -4.109,-0.138 -4.915,-2.045c-0.796,-1.91 0.135,-4.09 2.064,-4.871Zm-10.261,-18.246c2.78,-0.717 5.624,0.961 6.35,3.716c0.717,2.759 -0.957,5.55 -3.754,6.268c-2.788,0.716 -5.624,-0.963 -6.341,-3.715c-0.717,-2.753 0.964,-5.553 3.745,-6.269Zm-8.565,8.322c2.455,-0.679 5.003,0.764 5.688,3.18c0.695,2.419 -0.748,4.924 -3.194,5.592c-2.439,0.662 -4.979,-0.755 -5.672,-3.173c-0.693,-2.426 0.717,-4.924 3.178,-5.599Zm52.294,-43.809c1.108,0.582 1.522,1.902 0.94,2.998c-0.549,1.085 -1.929,1.505 -3.035,0.932c-1.1,-0.572 -1.538,-1.91 -0.956,-3.007c0.581,-1.098 1.944,-1.494 3.051,-0.923Zm-6.286,-2.186c1.689,0.796 2.408,2.775 1.61,4.437c-0.789,1.657 -2.812,2.37 -4.501,1.585c-1.674,-0.788 -2.415,-2.767 -1.618,-4.441c0.805,-1.676 2.812,-2.377 4.509,-1.581Zm-19.726,-0.772c2.971,0.826 4.701,3.888 3.88,6.816c-0.82,2.937 -3.887,4.639 -6.876,3.828c-2.954,-0.836 -4.708,-3.891 -3.871,-6.826c0.821,-2.92 3.897,-4.638 6.867,-3.818Zm2.908,-10.301c2.16,0.898 3.171,3.372 2.264,5.497c-0.909,2.131 -3.396,3.134 -5.554,2.25c-2.167,-0.922 -3.17,-3.381 -2.263,-5.497c0.916,-2.123 3.386,-3.149 5.553,-2.25Zm-15.988,5.648c2.939,0.747 4.724,3.691 3.967,6.602c-0.758,2.911 -3.745,4.645 -6.677,3.898c-2.93,-0.739 -4.732,-3.715 -3.967,-6.604c0.765,-2.894 3.745,-4.645 6.677,-3.896Zm55.152,-3.182c1.777,1.614 1.881,4.359 0.248,6.117c-1.633,1.756 -4.397,1.869 -6.182,0.231c-1.777,-1.6 -1.888,-4.328 -0.262,-6.086c1.624,-1.765 4.413,-1.885 6.196,-0.262Zm-13.391,1.758c1.513,0.987 1.951,2.998 0.957,4.486c-1.005,1.487 -3.044,1.893 -4.557,0.914c-1.515,-0.986 -1.929,-2.991 -0.933,-4.478c1.003,-1.479 3.02,-1.909 4.533,-0.922Zm6.086,-8.146c1.929,1.63 2.184,4.527 0.527,6.451c-1.658,1.916 -4.573,2.132 -6.517,0.501c-1.952,-1.638 -2.169,-4.519 -0.511,-6.443c1.649,-1.917 4.557,-2.14 6.501,-0.509Zm-14.586,4.313c1.744,1.016 2.333,3.245 1.289,4.962c-1.01,1.727 -3.259,2.3 -5.003,1.289c-1.736,-1.018 -2.333,-3.246 -1.306,-4.964c1.02,-1.726 3.283,-2.298 5.02,-1.287Zm-8.804,4.82c2.812,1.16 4.159,4.366 2.988,7.143c-1.162,2.774 -4.43,4.097 -7.242,2.935c-2.812,-1.161 -4.135,-4.383 -2.971,-7.169c1.169,-2.774 4.404,-4.071 7.225,-2.909Zm2.495,-11.67c1.943,1.129 2.595,3.596 1.448,5.512c-1.138,1.924 -3.664,2.57 -5.6,1.424c-1.943,-1.138 -2.597,-3.628 -1.45,-5.545c1.155,-1.916 3.649,-2.522 5.602,-1.391Zm6.841,-9.976c1.857,1.417 2.176,4.042 0.733,5.879c-1.433,1.837 -4.094,2.155 -5.941,0.731c-1.85,-1.424 -2.191,-4.064 -0.758,-5.885c1.434,-1.823 4.126,-2.164 5.966,-0.725Zm-16.227,3.079c2.206,1.225 3.012,4.032 1.761,6.22c-1.251,2.188 -4.048,2.952 -6.271,1.71c-2.229,-1.232 -3.011,-4.001 -1.76,-6.189c1.234,-2.195 4.055,-2.975 6.27,-1.741Zm41.514,10.214c1.212,1.312 1.092,3.365 -0.262,4.558c-1.347,1.192 -3.418,1.043 -4.621,-0.287c-1.203,-1.319 -1.085,-3.365 0.262,-4.557c1.355,-1.193 3.426,-1.051 4.621,0.286Zm2.86,-6.396c1.077,1.535 0.685,3.62 -0.852,4.662c-1.537,1.042 -3.649,0.653 -4.7,-0.876c-1.06,-1.535 -0.669,-3.586 0.861,-4.629c1.528,-1.042 3.64,-0.691 4.691,0.843Zm-9.807,-2.005c1.427,1.424 1.41,3.708 -0.022,5.116c-1.459,1.392 -3.761,1.376 -5.18,-0.048c-1.417,-1.424 -1.41,-3.723 0.031,-5.116c1.436,-1.383 3.745,-1.383 5.171,0.048Zm-12.57,3.66c1.65,1.256 1.96,3.588 0.685,5.21c-1.275,1.623 -3.658,1.949 -5.306,0.677c-1.657,-1.273 -1.953,-3.612 -0.678,-5.236c1.275,-1.63 3.642,-1.907 5.299,-0.651Zm6.523,-12.02c1.587,1.59 1.562,4.169 -0.048,5.728c-1.609,1.551 -4.205,1.511 -5.782,-0.072c-1.571,-1.607 -1.53,-4.16 0.072,-5.719c1.592,-1.551 4.173,-1.52 5.758,0.063Zm24.308,-11.795c1.417,1.845 1.051,4.494 -0.822,5.884c-1.872,1.384 -4.549,1.033 -5.966,-0.819c-1.411,-1.861 -1.043,-4.486 0.828,-5.886c1.864,-1.384 4.541,-1.018 5.96,0.821Zm-31.572,2.774c1.823,1.758 1.847,4.654 0.072,6.451c-1.777,1.799 -4.702,1.814 -6.525,0.041c-1.817,-1.775 -1.85,-4.654 -0.065,-6.451c1.777,-1.799 4.685,-1.799 6.518,-0.041Zm50.173,21.582c0.503,1.575 -0.39,3.244 -1.968,3.73c-1.577,0.485 -3.297,-0.38 -3.8,-1.972c-0.493,-1.552 0.392,-3.238 1.984,-3.723c1.571,-0.485 3.274,0.389 3.784,1.965Zm-13.805,-5.594c0.813,1.616 0.167,3.557 -1.457,4.361c-1.626,0.779 -3.596,0.152 -4.407,-1.472c-0.82,-1.583 -0.151,-3.516 1.458,-4.327c1.626,-0.805 3.584,-0.152 4.406,1.438Zm8.977,-1.78c0.63,1.727 -0.286,3.658 -2.047,4.278c-1.76,0.613 -3.697,-0.324 -4.317,-2.051c-0.63,-1.734 0.286,-3.651 2.039,-4.256c1.761,-0.629 3.695,0.295 4.325,2.029Zm-17.765,-0.994c0.996,1.734 0.382,3.953 -1.369,4.924c-1.754,0.97 -4,0.341 -4.996,-1.393c-1.003,-1.742 -0.366,-3.946 1.386,-4.916c1.753,-0.971 3.992,-0.349 4.979,1.385Zm-8.883,-2.372c1.267,1.623 0.948,3.953 -0.7,5.211c-1.658,1.256 -4.008,0.939 -5.282,-0.701c-1.268,-1.645 -0.941,-3.999 0.7,-5.25c1.65,-1.247 4.024,-0.889 5.282,0.74Zm14.556,-1.305c0.725,1.273 0.254,2.88 -1.012,3.581c-1.267,0.699 -2.901,0.269 -3.617,-1.003c-0.717,-1.273 -0.263,-2.863 1.012,-3.579c1.266,-0.716 2.891,-0.246 3.617,1.001Zm9.249,-14.674c0.885,2.171 -0.159,4.604 -2.326,5.464c-2.167,0.867 -4.637,-0.168 -5.537,-2.315c-0.902,-2.14 0.176,-4.597 2.343,-5.464c2.167,-0.86 4.643,0.175 5.52,2.315Zm-17.886,-4.496c1.299,2.181 0.582,4.972 -1.609,6.252c-2.182,1.273 -5.027,0.55 -6.326,-1.614c-1.299,-2.164 -0.556,-4.964 1.626,-6.245c2.191,-1.28 5.003,-0.549 6.309,1.607Zm40.943,33.578c0.063,1.645 -1.228,3.029 -2.878,3.086c-1.68,0.079 -3.075,-1.203 -3.154,-2.848c-0.072,-1.655 1.219,-3.063 2.891,-3.127c1.667,-0.063 3.067,1.241 3.141,2.889Zm-10.047,-7.256c0.366,1.751 -0.781,3.461 -2.525,3.812c-1.802,0.372 -3.522,-0.742 -3.889,-2.491c-0.366,-1.75 0.789,-3.492 2.559,-3.842c1.758,-0.351 3.488,0.771 3.855,2.521Zm9.208,-0.985c0.152,1.821 -1.234,3.435 -3.098,3.594c-1.857,0.16 -3.483,-1.249 -3.632,-3.079c-0.152,-1.837 1.241,-3.442 3.091,-3.586c1.856,-0.151 3.49,1.225 3.639,3.071Zm-12.498,-7.639c0.51,1.934 -0.693,3.9 -2.637,4.383c-1.952,0.495 -3.951,-0.667 -4.471,-2.601c-0.509,-1.924 0.695,-3.872 2.646,-4.383c1.951,-0.509 3.952,0.677 4.462,2.601Zm-9.393,-2.853c1.035,2.488 -0.168,5.336 -2.684,6.347c-2.511,1.009 -5.402,-0.184 -6.439,-2.682c-1.044,-2.498 0.159,-5.337 2.677,-6.348c2.526,-1.033 5.402,0.185 6.446,2.683Zm9.847,-6.413c0.556,2.164 -0.757,4.359 -2.948,4.917c-2.191,0.547 -4.407,-0.772 -4.972,-2.928c-0.573,-2.157 0.741,-4.343 2.932,-4.892c2.191,-0.55 4.421,0.732 4.988,2.903Zm-1.738,-11.4c0.687,2.435 -0.756,4.933 -3.202,5.617c-2.453,0.675 -4.988,-0.747 -5.681,-3.182c-0.684,-2.426 0.741,-4.924 3.196,-5.615c2.461,-0.661 5.003,0.747 5.687,3.18Zm27.692,40.578c-0.358,1.6 -1.984,2.625 -3.615,2.275c-1.633,-0.358 -2.646,-1.957 -2.288,-3.564c0.359,-1.598 1.968,-2.616 3.594,-2.275c1.633,0.367 2.67,1.965 2.309,3.564Zm-4.724,-7.272c-0.111,1.775 -1.664,3.151 -3.464,3.04c-1.816,-0.112 -3.179,-1.662 -3.076,-3.444c0.103,-1.774 1.642,-3.126 3.442,-3.014c1.799,0.111 3.211,1.646 3.098,3.418Zm-0.924,-9.194c-0.024,1.996 -1.672,3.61 -3.696,3.596c-2.033,-0.017 -3.664,-1.672 -3.649,-3.668c0.024,-1.996 1.681,-3.595 3.704,-3.564c2.016,-0.007 3.658,1.64 3.641,3.636Zm-8.954,-5.091c0.375,2.815 -1.632,5.401 -4.494,5.752c-2.843,0.358 -5.455,-1.624 -5.823,-4.441c-0.375,-2.815 1.65,-5.401 4.493,-5.75c2.845,-0.357 5.458,1.615 5.824,4.439Zm-5.203,18.932c0,2.219 -1.855,4.016 -4.126,3.985c-2.263,-0.032 -4.072,-1.854 -4.048,-4.081c0.025,-2.226 1.881,-4.032 4.135,-4.008c2.256,0.031 4.08,1.861 4.039,4.104Zm44.743,-24.509c-0.647,2.435 -3.155,3.906 -5.626,3.269c-2.46,-0.644 -3.935,-3.11 -3.314,-5.543c0.613,-2.443 3.131,-3.915 5.592,-3.278c2.471,0.636 3.96,3.11 3.348,5.552Zm11.017,26.88c-1.146,1.926 -3.656,2.521 -5.6,1.392c-1.944,-1.121 -2.598,-3.604 -1.45,-5.513c1.147,-1.91 3.665,-2.561 5.609,-1.425c1.943,1.139 2.588,3.62 1.441,5.546Zm9.664,1.511c-1.443,1.82 -4.118,2.149 -5.967,0.725c-1.848,-1.425 -2.175,-4.066 -0.734,-5.88c1.443,-1.82 4.089,-2.163 5.951,-0.732c1.857,1.433 2.199,4.066 0.75,5.887Zm-0.94,-11.963c-1.441,2.529 -4.717,3.427 -7.281,1.996c-2.574,-1.432 -3.505,-4.669 -2.057,-7.208c1.451,-2.544 4.708,-3.444 7.282,-1.996c2.581,1.424 3.499,4.678 2.056,7.208Zm-9.768,54.552c-1.41,0.883 -3.257,0.453 -4.15,-0.93c-0.901,-1.393 -0.493,-3.221 0.908,-4.119c1.402,-0.893 3.283,-0.471 4.182,0.913c0.9,1.392 0.47,3.261 -0.94,4.136Zm4.94,-13.753c-1.003,0.867 -2.533,0.781 -3.418,-0.214c-0.909,-0.981 -0.796,-2.492 0.2,-3.381c0.996,-0.884 2.525,-0.771 3.416,0.214c0.892,0.987 0.805,2.505 -0.198,3.381Zm4.541,5.75c-1.537,1.028 -3.634,0.646 -4.7,-0.876c-1.075,-1.518 -0.694,-3.61 0.845,-4.636c1.544,-1.059 3.649,-0.653 4.707,0.843c1.061,1.537 0.678,3.605 -0.852,4.669Zm-4.144,-15.01c-1.441,1.4 -3.776,1.37 -5.193,-0.056c-1.41,-1.422 -1.395,-3.73 0.056,-5.13c1.433,-1.376 3.752,-1.352 5.169,0.072c1.411,1.422 1.419,3.715 -0.032,5.114Zm-2.03,-11.956c-1.284,1.64 -3.656,1.95 -5.306,0.677c-1.65,-1.273 -1.951,-3.612 -0.678,-5.235c1.275,-1.622 3.625,-1.917 5.275,-0.661c1.657,1.257 1.984,3.581 0.709,5.219Zm8.986,6.65c-1.601,1.559 -4.214,1.526 -5.784,-0.072c-1.576,-1.59 -1.561,-4.169 0.04,-5.726c1.61,-1.551 4.205,-1.51 5.792,0.08c1.586,1.614 1.545,4.159 -0.048,5.718Zm11.185,8.202c-1.864,1.393 -4.517,1.018 -5.927,-0.834c-1.409,-1.863 -1.058,-4.464 0.821,-5.888c1.864,-1.384 4.524,-1.011 5.951,0.852c1.409,1.821 1.021,4.477 -0.845,5.87Zm3.793,-9.338c-1.777,1.797 -4.7,1.823 -6.525,0.07c-1.816,-1.758 -1.84,-4.652 -0.048,-6.442c1.784,-1.791 4.685,-1.839 6.501,-0.072c1.825,1.749 1.848,4.645 0.072,6.444Zm-21.224,44.044c-1.585,0.486 -3.291,-0.374 -3.784,-1.964c-0.493,-1.585 0.375,-3.23 1.968,-3.723c1.594,-0.492 3.298,0.38 3.793,1.932c0.5,1.592 -0.385,3.278 -1.977,3.755Zm1.171,-14.102c-1.602,0.793 -3.577,0.127 -4.397,-1.465c-0.798,-1.583 -0.159,-3.54 1.45,-4.335c1.617,-0.797 3.609,-0.161 4.412,1.439c0.806,1.601 0.137,3.564 -1.465,4.361Zm3.546,7.301c-1.761,0.627 -3.697,-0.279 -4.325,-2.029c-0.64,-1.742 0.31,-3.649 2.061,-4.271c1.761,-0.612 3.69,0.286 4.327,2.052c0.621,1.734 -0.295,3.619 -2.063,4.248Zm3.697,-9.777c-1.769,0.987 -4,0.391 -5.011,-1.367c-0.981,-1.751 -0.375,-3.929 1.393,-4.907c1.768,-0.989 4.007,-0.391 4.996,1.36c1.003,1.748 0.39,3.936 -1.378,4.914Zm11.519,-10.373c-1.648,1.243 -4.022,0.924 -5.297,-0.706c-1.275,-1.64 -0.924,-4.002 0.724,-5.243c1.641,-1.251 4.039,-0.939 5.29,0.708c1.26,1.638 0.923,3.992 -0.717,5.241Zm-1.051,9.681c-1.961,1.09 -4.462,0.391 -5.569,-1.566c-1.116,-1.948 -0.406,-4.407 1.554,-5.497c1.96,-1.09 4.436,-0.397 5.552,1.559c1.108,1.949 0.423,4.407 -1.537,5.504Zm5.041,10.668c-2.165,0.876 -4.652,-0.175 -5.537,-2.315c-0.883,-2.14 0.169,-4.597 2.343,-5.466c2.184,-0.865 4.661,0.168 5.537,2.325c0.885,2.154 -0.174,4.587 -2.343,5.456Zm4.168,-14.866c-2.071,1.201 -4.724,0.531 -5.95,-1.513c-1.22,-2.044 -0.534,-4.686 1.537,-5.887c2.071,-1.2 4.724,-0.523 5.951,1.513c1.226,2.042 0.541,4.684 -1.538,5.887Zm-34.28,41.307c-1.403,0.064 -2.607,-1.041 -2.661,-2.441c-0.072,-1.4 1.035,-2.586 2.454,-2.642c1.417,-0.055 2.603,1.05 2.675,2.45c0.065,1.4 -1.059,2.577 -2.468,2.633Zm9.193,-12.1c-1.768,0.36 -3.483,-0.778 -3.841,-2.544c-0.366,-1.76 0.772,-3.453 2.542,-3.802c1.77,-0.35 3.49,0.762 3.856,2.513c0.366,1.75 -0.78,3.468 -2.557,3.833Zm1.785,12.808c-1.864,0.144 -3.49,-1.242 -3.649,-3.079c-0.159,-1.837 1.243,-3.444 3.091,-3.593c1.856,-0.144 3.506,1.247 3.656,3.084c0.151,1.83 -1.234,3.446 -3.098,3.588Zm4.461,-18.113c-1.967,0.501 -3.968,-0.661 -4.469,-2.601c-0.495,-1.941 0.676,-3.937 2.637,-4.422c1.958,-0.495 3.959,0.668 4.461,2.601c0.501,1.924 -0.668,3.913 -2.629,4.422Zm4.215,-10.095c-1.922,0.788 -4.128,-0.134 -4.924,-2.044c-0.796,-1.901 0.127,-4.056 2.047,-4.836c1.929,-0.779 4.142,0.119 4.931,2.021c0.789,1.9 -0.118,4.088 -2.054,4.859Zm-16.691,51.19c-1.953,-0.558 -3.1,-2.554 -2.566,-4.472c0.534,-1.917 2.559,-3.062 4.51,-2.503c1.96,0.531 3.1,2.529 2.557,4.438c-0.534,1.946 -2.566,3.06 -4.501,2.537Zm5.083,14.851c-2.153,-0.907 -3.187,-3.357 -2.264,-5.497c0.917,-2.14 3.411,-3.141 5.571,-2.236c2.165,0.901 3.17,3.365 2.261,5.498c-0.9,2.123 -3.394,3.134 -5.568,2.235Zm16.212,-4.193c-1.523,-0.389 -2.446,-1.916 -2.055,-3.411c0.39,-1.496 1.936,-2.411 3.45,-2.029c1.513,0.382 2.446,1.933 2.054,3.413c-0.381,1.511 -1.927,2.409 -3.449,2.027Zm-23.231,-2.171c-1.92,-0.786 -2.843,-2.983 -2.03,-4.876c0.811,-1.901 3.002,-2.792 4.931,-2.005c1.919,0.795 2.85,2.983 2.047,4.892c-0.806,1.902 -3.019,2.784 -4.948,1.989Zm-2.533,13.634c-1.936,-1.138 -2.581,-3.619 -1.443,-5.545c1.14,-1.924 3.656,-2.529 5.602,-1.391c1.934,1.137 2.596,3.61 1.448,5.514c-1.145,1.908 -3.663,2.559 -5.607,1.422Zm8.029,6.379c-1.999,-1.112 -2.716,-3.65 -1.592,-5.631c1.13,-1.98 3.68,-2.681 5.696,-1.552c2.015,1.114 2.732,3.627 1.592,5.625c-1.13,1.981 -3.687,2.68 -5.696,1.558Zm-38.886,-8.144c-1.21,-1.321 -1.098,-3.365 0.264,-4.551c1.354,-1.192 3.418,-1.083 4.628,0.264c1.212,1.335 1.075,3.389 -0.27,4.58c-1.354,1.194 -3.41,1.043 -4.622,-0.293Zm5.219,7.229c-1.417,-1.424 -1.402,-3.706 0.048,-5.106c1.441,-1.407 3.769,-1.385 5.179,0.041c1.417,1.422 1.378,3.745 -0.058,5.137c-1.441,1.393 -3.75,1.353 -5.169,-0.072Zm8.486,0.178c-1.427,-1.1 -1.682,-3.12 -0.582,-4.52c1.099,-1.4 3.122,-1.655 4.548,-0.564c1.427,1.081 1.706,3.095 0.599,4.517c-1.101,1.4 -3.148,1.662 -4.565,0.567Zm-2.057,9.002c-1.576,-1.598 -1.537,-4.158 0.063,-5.71c1.602,-1.56 4.183,-1.527 5.761,0.054c1.602,1.592 1.578,4.162 -0.039,5.73c-1.618,1.566 -4.216,1.518 -5.785,-0.074Zm-11.694,7.995c-1.403,-1.852 -1.052,-4.487 0.82,-5.877c1.864,-1.393 4.548,-1.035 5.958,0.819c1.412,1.852 1.044,4.486 -0.818,5.879c-1.866,1.391 -4.527,1.011 -5.96,-0.821Zm17.558,0.23c-1.816,-1.765 -1.849,-4.652 -0.064,-6.451c1.777,-1.789 4.685,-1.796 6.509,-0.038c1.832,1.758 1.866,4.63 0.088,6.417c-1.777,1.799 -4.709,1.847 -6.533,0.072Zm-43.769,-17.873c-0.551,-1.511 0.238,-3.158 1.775,-3.715c1.532,-0.543 3.235,0.271 3.786,1.782c0.549,1.518 -0.248,3.174 -1.792,3.708c-1.532,0.564 -3.22,-0.257 -3.769,-1.775Zm14.237,8.884c-1.005,-1.741 -0.39,-3.968 1.378,-4.946c1.768,-0.987 3.976,-0.352 4.979,1.384c1.003,1.741 0.397,3.951 -1.371,4.923c-1.76,1.004 -3.99,0.375 -4.986,-1.361Zm8.955,-0.651c-1.754,-2.251 -1.316,-5.49 0.962,-7.207c2.288,-1.718 5.571,-1.29 7.322,0.979c1.744,2.265 1.299,5.472 -0.988,7.206c-2.293,1.728 -5.545,1.282 -7.296,-0.978Zm-8.325,9.052c-1.116,-1.941 -0.399,-4.407 1.561,-5.495c1.96,-1.091 4.445,-0.399 5.544,1.549c1.1,1.95 0.431,4.4 -1.537,5.507c-1.96,1.103 -4.454,0.381 -5.568,-1.561Zm-14.078,1.035c-0.869,-2.14 0.175,-4.597 2.35,-5.464c2.167,-0.869 4.652,0.175 5.537,2.315c0.883,2.138 -0.168,4.597 -2.35,5.464c-2.175,0.865 -4.638,-0.175 -5.537,-2.315Zm19.67,8.343c-1.108,-1.844 -0.486,-4.239 1.393,-5.312c1.857,-1.083 4.272,-0.502 5.369,1.361c1.109,1.85 0.488,4.237 -1.369,5.32c-1.857,1.091 -4.286,0.478 -5.393,-1.369Zm-41.874,-32.334c-0.072,-1.632 1.227,-3.055 2.884,-3.119c1.665,-0.072 3.084,1.217 3.163,2.887c0.072,1.632 -1.227,3.023 -2.891,3.088c-1.674,0.055 -3.084,-1.225 -3.156,-2.856Zm10.047,7.254c-0.36,-1.768 0.789,-3.476 2.555,-3.843c1.77,-0.358 3.49,0.771 3.858,2.514c0.366,1.751 -0.748,3.461 -2.526,3.819c-1.777,0.365 -3.529,-0.732 -3.887,-2.49Zm-11.536,0.057c-0.144,-1.847 1.242,-3.444 3.098,-3.59c1.857,-0.142 3.489,1.219 3.642,3.048c0.151,1.837 -1.236,3.46 -3.108,3.619c-1.856,0.127 -3.482,-1.225 -3.632,-3.077Zm8.946,7.993c-0.51,-1.933 0.661,-3.913 2.621,-4.398c1.961,-0.494 3.96,0.675 4.46,2.599c0.503,1.934 -0.659,3.906 -2.619,4.4c-1.961,0.485 -3.952,-0.668 -4.462,-2.601Zm18.865,-0.644c-0.804,-1.909 0.127,-4.09 2.056,-4.87c1.929,-0.778 4.133,0.146 4.931,2.055c0.806,1.9 -0.113,4.055 -2.039,4.835c-1.927,0.771 -4.152,-0.12 -4.948,-2.02Zm-13.424,10.452c-0.573,-2.156 0.741,-4.335 2.932,-4.892c2.191,-0.548 4.423,0.74 4.988,2.911c0.558,2.164 -0.757,4.359 -2.949,4.909c-2.191,0.557 -4.406,-0.773 -4.971,-2.928Zm-12.133,1.035c-0.303,-2.298 1.354,-4.375 3.688,-4.654c2.328,-0.286 4.438,1.328 4.733,3.636c0.286,2.306 -1.347,4.407 -3.68,4.684c-2.335,0.278 -4.447,-1.376 -4.741,-3.666Zm13.528,9.617c-0.542,-1.919 0.572,-3.883 2.494,-4.415c1.919,-0.542 3.935,0.587 4.484,2.491c0.541,1.892 -0.59,3.864 -2.517,4.405c-1.919,0.533 -3.927,-0.572 -4.461,-2.481Zm-29.732,-50.584c0.334,-1.472 1.784,-2.387 3.283,-2.068c1.465,0.334 2.396,1.797 2.071,3.261c-0.327,1.463 -1.792,2.362 -3.276,2.037c-1.48,-0.327 -2.413,-1.76 -2.078,-3.23Zm7.105,18.058c0.105,-1.782 1.643,-3.142 3.451,-3.048c1.816,0.104 3.195,1.622 3.091,3.413c-0.113,1.799 -1.657,3.151 -3.458,3.053c-1.8,-0.101 -3.187,-1.636 -3.084,-3.418Zm-9.152,-1.4c0.334,-1.814 2.087,-3.009 3.918,-2.681c1.833,0.327 3.06,2.085 2.733,3.889c-0.335,1.813 -2.103,3.014 -3.943,2.671c-1.84,-0.339 -3.035,-2.068 -2.708,-3.879Zm16.426,14.779c-0.263,-2.045 1.195,-3.907 3.268,-4.169c2.071,-0.263 3.959,1.179 4.229,3.221c0.279,2.037 -1.186,3.915 -3.266,4.169c-2.071,0.262 -3.974,-1.169 -4.231,-3.221Zm-9.129,2.777c0.032,-2.229 1.872,-4.018 4.126,-3.987c2.246,0.032 4.072,1.854 4.048,4.081c-0.017,2.226 -1.874,4.025 -4.135,4.01c-2.256,-0.016 -4.072,-1.878 -4.039,-4.104Zm-3.172,11.85c-0.031,-3.086 2.479,-5.63 5.602,-5.654c3.122,-0.024 5.696,2.474 5.727,5.575c0.041,3.07 -2.478,5.624 -5.616,5.648c-3.13,0.024 -5.689,-2.49 -5.713,-5.569Zm-2.557,-21.286c0.279,-2.044 2.184,-3.477 4.238,-3.197c2.064,0.277 3.531,2.157 3.252,4.191c-0.272,2.037 -2.184,3.485 -4.24,3.199c-2.071,-0.264 -3.529,-2.14 -3.25,-4.193Zm-30.29,-33.585c1.205,-1.4 3.338,-1.559 4.765,-0.365c1.426,1.201 1.592,3.317 0.382,4.724c-1.203,1.4 -3.331,1.552 -4.765,0.36c-1.417,-1.203 -1.592,-3.319 -0.382,-4.719Zm-3.56,20.357c1.155,-1.917 3.665,-2.561 5.607,-1.415c1.945,1.136 2.6,3.619 1.443,5.545c-1.147,1.917 -3.656,2.536 -5.6,1.413c-1.953,-1.129 -2.605,-3.627 -1.45,-5.543Zm-8.804,10.35c1.236,-2.197 4.063,-2.944 6.278,-1.712c2.206,1.234 3.004,4.002 1.752,6.189c-1.257,2.196 -4.07,2.976 -6.293,1.744c-2.215,-1.234 -2.98,-4.027 -1.737,-6.221Zm8.994,-54.482c1.402,-0.869 3.276,-0.455 4.176,0.937c0.907,1.393 0.485,3.221 -0.933,4.114c-1.41,0.889 -3.282,0.469 -4.174,-0.915c-0.892,-1.393 -0.479,-3.247 0.931,-4.136Zm-3.625,14.581c0.996,-0.867 2.511,-0.78 3.394,0.205c0.885,0.979 0.806,2.499 -0.197,3.381c-0.998,0.884 -2.502,0.764 -3.411,-0.214c-0.885,-0.994 -0.782,-2.499 0.214,-3.372Zm-2.244,-8.36c1.672,-1.14 3.964,-0.742 5.113,0.915c1.148,1.66 0.725,3.929 -0.947,5.058c-1.665,1.129 -3.952,0.723 -5.109,-0.939c-1.145,-1.662 -0.739,-3.889 0.943,-5.034Zm0.389,14.763c1.434,-1.408 3.753,-1.384 5.179,0.039c1.424,1.431 1.41,3.708 -0.026,5.115c-1.441,1.408 -3.76,1.384 -5.177,-0.048c-1.426,-1.422 -1.409,-3.708 0.024,-5.106Zm2.772,9.895c1.722,-2.204 4.923,-2.608 7.162,-0.9c2.238,1.703 2.637,4.877 0.924,7.065c-1.72,2.188 -4.938,2.618 -7.163,0.899c-2.222,-1.711 -2.636,-4.861 -0.923,-7.064Zm-19.089,-14.819c1.866,-1.392 4.519,-1.001 5.936,0.836c1.41,1.845 1.061,4.453 -0.813,5.855c-1.871,1.406 -4.548,1.041 -5.958,-0.821c-1.411,-1.854 -1.029,-4.479 0.835,-5.87Zm18.922,-31.812c1.586,-0.492 3.306,0.406 3.801,1.974c0.5,1.566 -0.407,3.247 -1.992,3.747c-1.587,0.494 -3.283,-0.375 -3.785,-1.965c-0.503,-1.585 0.391,-3.254 1.976,-3.756Zm-3.434,12.633c1.609,-0.797 3.593,-0.135 4.399,1.463c0.803,1.599 0.142,3.54 -1.452,4.327c-1.632,0.812 -3.609,0.168 -4.412,-1.431c-0.806,-1.607 -0.152,-3.562 1.465,-4.359Zm-3.019,-9.131c2.008,-0.709 4.229,0.317 4.931,2.291c0.724,2.012 -0.318,4.176 -2.333,4.875c-2.009,0.701 -4.2,-0.334 -4.924,-2.315c-0.719,-1.988 0.334,-4.143 2.326,-4.851Zm-3.531,13.728c1.756,-0.985 3.993,-0.349 4.996,1.393c1.005,1.736 0.359,3.936 -1.386,4.916c-1.753,0.97 -3.999,0.372 -4.986,-1.36c-0.996,-1.736 -0.382,-3.962 1.376,-4.949Zm0.902,11.312c1.648,-1.242 4,-0.939 5.275,0.708c1.265,1.64 0.955,4.001 -0.702,5.243c-1.658,1.241 -4.032,0.906 -5.29,-0.733c-1.267,-1.616 -0.94,-3.977 0.717,-5.218Zm-15.911,-22.201c2.831,-1.115 6.04,0.247 7.204,3.038c1.154,2.783 -0.209,5.975 -3.036,7.104c-2.828,1.136 -6.056,-0.207 -7.201,-3.007c-1.148,-2.799 0.221,-6.014 3.033,-7.135Zm12.39,-70.757c2.078,0.819 3.098,3.173 2.261,5.234c-0.828,2.068 -3.209,3.086 -5.289,2.25c-2.079,-0.843 -3.106,-3.18 -2.271,-5.24c0.837,-2.068 3.211,-3.072 5.299,-2.244Zm18.737,-18.05c1.84,1.376 2.239,3.979 0.854,5.824c-1.412,1.83 -4.032,2.187 -5.888,0.811c-1.864,-1.376 -2.247,-3.953 -0.861,-5.8c1.385,-1.837 4.031,-2.202 5.895,-0.835Zm22.49,-12.688c1.227,1.544 0.957,3.763 -0.597,4.981c-1.554,1.217 -3.809,0.939 -5.036,-0.604c-1.227,-1.544 -0.955,-3.779 0.606,-4.98c1.554,-1.201 3.809,-0.939 5.027,0.603Zm27.358,-7.477c1.036,2.419 -0.079,5.188 -2.502,6.206c-2.422,1.009 -5.226,-0.096 -6.277,-2.491c-1.044,-2.387 0.079,-5.17 2.509,-6.196c2.431,-1.035 5.226,0.096 6.27,2.481Zm27.628,-0.723c0.375,2.585 -1.426,4.972 -4.039,5.346c-2.605,0.373 -5.049,-1.433 -5.424,-4.01c-0.383,-2.57 1.441,-4.964 4.055,-5.337c2.605,-0.367 5.035,1.415 5.408,4.001Zm48.59,22.201c-0.749,1.854 -2.884,2.745 -4.763,1.996c-1.874,-0.739 -2.805,-2.839 -2.049,-4.702c0.75,-1.852 2.893,-2.76 4.764,-2.02c1.881,0.749 2.798,2.865 2.048,4.726Zm19.105,19.538c-1.258,1.662 -3.625,1.979 -5.306,0.739c-1.682,-1.241 -2.023,-3.58 -0.773,-5.235c1.259,-1.662 3.625,-1.988 5.306,-0.747c1.672,1.242 2.023,3.579 0.773,5.243Zm13.727,26.846c-1.713,1.336 -4.2,1.042 -5.537,-0.668c-1.364,-1.688 -1.068,-4.145 0.637,-5.457c1.713,-1.344 4.222,-1.051 5.569,0.644c1.346,1.694 1.043,4.136 -0.669,5.481Zm-16.563,95.774c-2.199,-0.874 -3.276,-3.372 -2.398,-5.543c0.875,-2.164 3.386,-3.223 5.585,-2.349c2.206,0.877 3.298,3.343 2.413,5.524c-0.884,2.176 -3.394,3.243 -5.6,2.368Zm-40.838,30.833c-1.361,-1.718 -1.068,-4.217 0.669,-5.569c1.746,-1.36 4.279,-1.057 5.641,0.66c1.385,1.727 1.075,4.217 -0.669,5.577c-1.737,1.352 -4.255,1.058 -5.641,-0.668Zm-29.852,6.696c-1.386,-3.164 0.104,-6.855 3.314,-8.2c3.211,-1.343 6.923,0.128 8.301,3.286c1.379,3.165 -0.103,6.84 -3.314,8.201c-3.209,1.369 -6.913,-0.112 -8.301,-3.287Zm-23.303,0.36c-0.351,-2.332 1.316,-4.503 3.697,-4.844c2.374,-0.336 4.589,1.287 4.931,3.641c0.342,2.365 -1.306,4.529 -3.697,4.87c-2.364,0.334 -4.589,-1.306 -4.931,-3.667Zm-26.665,-7.661c0.312,-2.577 2.685,-4.439 5.306,-4.129c2.613,0.31 4.486,2.658 4.176,5.234c-0.311,2.579 -2.694,4.464 -5.307,4.137c-2.612,-0.324 -4.485,-2.656 -4.175,-5.242Zm-25.278,-13.109c0.821,-2.029 3.156,-3.023 5.21,-2.202c2.064,0.817 3.036,3.117 2.223,5.146c-0.828,2.035 -3.132,3.015 -5.186,2.194c-2.064,-0.81 -3.067,-3.109 -2.247,-5.138Zm-16.69,-18.997c1.578,-2.092 4.558,-2.496 6.668,-0.939c2.119,1.561 2.549,4.529 0.981,6.597c-1.578,2.09 -4.573,2.529 -6.685,0.961c-2.111,-1.559 -2.535,-4.525 -0.964,-6.619Zm120.249,-71.352c-6.23,-0.62 -11.815,3.872 -12.428,10.047c-0.621,6.179 3.954,11.669 10.206,12.289l0.343,0.048c0.614,1.823 8.294,25.972 14.834,46.36l-15.327,-8.473c0.558,-2.291 0.397,-4.804 -0.678,-7.11c-2.518,-5.512 -9.075,-7.956 -14.627,-5.442c-5.561,2.515 -8.031,9.029 -5.513,14.535c2.581,5.647 10.993,9.227 17.273,3.771l21.924,12.193c3.497,10.834 6.141,18.94 6.285,19.036l5.513,-4.503l-0.454,-1.551l-22.649,-70.375c3.002,-1.774 4.987,-3.597 5.473,-8.52c0.495,-4.917 -3.936,-11.685 -10.175,-12.305Zm-18.155,55.657c-1.02,2.69 0.351,5.68 3.059,6.691c2.709,1.002 5.729,-0.358 6.747,-3.046c1.022,-2.689 -0.341,-5.696 -3.05,-6.707c-2.708,-1.009 -5.736,0.375 -6.756,3.062Zm14.874,-39.08c2.997,1.184 6.413,-0.255 7.617,-3.221c1.194,-2.968 -0.28,-6.34 -3.275,-7.534c-2.995,-1.186 -6.422,0.253 -7.616,3.223c-1.195,2.966 0.27,6.346 3.274,7.532Zm-87.364,53.807c-2.422,-5.562 0.183,-12.006 5.807,-14.374c5.619,-2.371 12.142,0.214 14.557,5.766c2.468,5.697 -0.534,14.262 -8.835,15.177l-6.525,27.826l-6.278,-3.317l6.119,-25.797c-2.079,-1.129 -3.849,-2.944 -4.845,-5.281Zm12.046,-9.371c2.692,1.066 4,4.089 2.923,6.744c-1.075,2.665 -4.125,3.955 -6.819,2.887c-2.692,-1.065 -4.015,-4.095 -2.94,-6.754c1.076,-2.654 4.143,-3.944 6.836,-2.877Zm-12.341,-66.479c-2.557,-0.014 -4.946,-0.833 -6.875,-2.243l-19.598,9.823l-24.14,-7.246l1.053,-6.513l22.091,7.054l16.515,-8.558c-2.43,-6.857 2.032,-15.416 10.898,-15.267c6.43,0.009 11.632,5.132 11.64,11.489c0.016,6.324 -5.162,11.437 -11.584,11.461Zm-2.47,-5.989c-3.13,-1.273 -4.621,-4.813 -3.337,-7.9c1.284,-3.086 4.842,-4.565 7.976,-3.292c3.137,1.272 4.643,4.82 3.361,7.906c-1.283,3.086 -4.869,4.558 -8,3.286Zm102.158,-40.308c3.346,1.33 4.972,5.101 3.642,8.394c-1.34,3.293 -5.14,4.907 -8.477,3.588c-3.346,-1.321 -4.988,-5.101 -3.656,-8.401c1.33,-3.293 5.153,-4.9 8.491,-3.581Zm0.917,-64.901c7.345,3.706 12.341,5.808 19.271,10.357c6.598,4.335 13.864,11.732 20.188,20.15c-0.686,-1.91 -1.498,-3.771 -2.444,-5.562l-0.996,-1.886l-1.092,-1.669c-3.555,-5.416 -8.51,-10.26 -13.886,-13.793c-5.21,-3.42 -10.684,-5.759 -16.779,-6.96l-2.175,-0.423l-1.904,-0.19c-0.063,-0.016 -0.128,-0.016 -0.183,-0.024Z" style="fill:#fff;"/><g><path d="M96.375,340.336l5.07,0c2.778,0 4.72,-0.719 5.825,-2.156c0.937,-1.237 1.405,-3.21 1.405,-5.918c0,-2.842 -0.619,-4.998 -1.857,-6.469c-1.239,-1.472 -3.146,-2.207 -5.723,-2.207l-2.411,0c-0.702,0 -1.221,0.05 -1.556,0.15c-0.335,0.101 -0.544,0.31 -0.628,0.627c-0.083,0.318 -0.125,0.961 -0.125,1.931l0,14.042Zm0,0.45l0,11.29c0,0.97 0.067,1.589 0.2,1.857c0.067,0.134 0.3,0.276 0.7,0.426c0.4,0.151 1.183,0.276 2.35,0.377c1.167,0.1 2.767,0.15 4.8,0.15l0,0.5l-21.6,0l0,-0.5c1.7,0 3.108,-0.05 4.225,-0.15c1.117,-0.101 1.875,-0.226 2.275,-0.377c0.4,-0.15 0.633,-0.292 0.7,-0.426c0.133,-0.268 0.2,-0.886 0.2,-1.856l0,-25.783c0,-0.902 -0.067,-1.487 -0.2,-1.755c-0.067,-0.134 -0.267,-0.268 -0.6,-0.402c-1.033,-0.367 -3.233,-0.551 -6.6,-0.551l0,-0.45l19.4,0c3.967,0 7.1,0.917 9.4,2.75c2.167,1.733 3.25,4 3.25,6.8c0,1.9 -0.833,3.633 -2.5,5.2c-2.067,1.933 -4.867,2.9 -8.4,2.9l-7.6,0Z" style="fill:#fff;fill-rule:nonzero;"/><path d="M145.825,352.077l0,-12.941l-14.25,0l0,12.941c0,0.97 0.067,1.588 0.2,1.856c0.067,0.134 0.292,0.276 0.675,0.426c0.383,0.151 1.092,0.276 2.125,0.377c1.033,0.1 2.25,0.15 3.65,0.15l0,0.5l-19.6,0l0,-0.5c1.433,0 2.675,-0.05 3.725,-0.15c1.05,-0.101 1.767,-0.226 2.15,-0.377c0.383,-0.15 0.633,-0.334 0.75,-0.552c0.117,-0.217 0.175,-0.794 0.175,-1.73l0,-25.683c0,-0.969 -0.067,-1.571 -0.2,-1.805c-0.067,-0.134 -0.292,-0.268 -0.675,-0.401c-0.383,-0.134 -1.133,-0.267 -2.25,-0.401c-1.117,-0.134 -2.342,-0.201 -3.675,-0.201l0,-0.45l19.65,0l0,0.45c-2.833,0 -4.783,0.201 -5.85,0.602c-0.333,0.134 -0.533,0.267 -0.6,0.401c-0.167,0.301 -0.25,0.903 -0.25,1.806l0,11.891l14.25,0l0,-11.891c0,-0.936 -0.083,-1.538 -0.25,-1.806c-0.067,-0.134 -0.283,-0.268 -0.65,-0.401c-0.367,-0.134 -1.117,-0.267 -2.25,-0.401c-1.133,-0.134 -2.333,-0.201 -3.6,-0.201l0,-0.45l19.65,0l0,0.45c-1.5,0 -2.733,0.05 -3.7,0.15c-0.967,0.101 -1.717,0.251 -2.25,0.451l-0.45,0.201c-0.233,0.235 -0.35,0.903 -0.35,2.006l0,25.683c0,0.97 0.067,1.588 0.2,1.856c0.067,0.134 0.267,0.267 0.6,0.401c0.967,0.368 2.95,0.552 5.95,0.552l0,0.5l-19.6,0l0,-0.5c2.933,0 4.883,-0.184 5.85,-0.552c0.367,-0.134 0.583,-0.267 0.65,-0.401c0.133,-0.234 0.2,-0.853 0.2,-1.856Z" style="fill:#fff;fill-rule:nonzero;"/><path d="M172.225,326.294l0,25.783c0,0.97 0.067,1.588 0.2,1.856c0.067,0.134 0.267,0.267 0.6,0.401c0.967,0.368 2.95,0.552 5.95,0.552l0,0.5l-19.7,0l0,-0.5c1.433,0 2.675,-0.05 3.725,-0.15c1.05,-0.101 1.767,-0.226 2.15,-0.377c0.383,-0.15 0.633,-0.334 0.75,-0.552c0.117,-0.217 0.175,-0.794 0.175,-1.73l0,-25.783c0,-0.936 -0.067,-1.521 -0.2,-1.755c-0.067,-0.134 -0.283,-0.268 -0.65,-0.402c-0.967,-0.367 -2.95,-0.551 -5.95,-0.551l0,-0.45l19.75,0l0,0.45c-1.433,0 -2.675,0.05 -3.725,0.15c-1.05,0.101 -1.792,0.234 -2.225,0.401l-0.5,0.201c-0.233,0.201 -0.35,0.853 -0.35,1.956Z" style="fill:#fff;fill-rule:nonzero;"/><path d="M208.575,345.484l0,-13.931c0,-3.04 -0.517,-5.127 -1.55,-6.263c-1.033,-1.136 -2.9,-1.704 -5.6,-1.704l0,-0.45l14.2,0l0,0.45c-2.367,0 -4.017,0.567 -4.95,1.703c-0.933,1.135 -1.4,3.221 -1.4,6.259l0,24.038l-1.2,0l-19.853,-26.4l-0.548,-0.65c-0.099,0 -0.149,0.3 -0.149,0.901l0,16.332c0,3.673 0.498,6.111 1.493,7.313c0.995,1.203 2.852,1.804 5.573,1.804l0,0.5l-14.566,0l0,-0.5c2.6,0 4.383,-0.535 5.35,-1.605c0.967,-1.07 1.45,-3.177 1.45,-6.32l0,-17.055c0,-1.873 -0.5,-3.344 -1.5,-4.414c-1.2,-1.271 -2.967,-1.906 -5.3,-1.906l0,-0.45l10.35,0l17.255,22.5c0.431,0.567 0.696,0.85 0.796,0.85c0.099,0 0.149,-0.334 0.149,-1.002Z" style="fill:#fff;fill-rule:nonzero;"/><path d="M227.675,338.636l0,13.391c0,0.937 0.05,1.522 0.15,1.756c0.099,0.234 0.415,0.443 0.947,0.627c0.532,0.184 1.147,0.293 1.846,0.326c0.698,0.033 1.944,0.05 3.739,0.05c3.79,0 6.658,-1.129 8.603,-3.387c1.945,-2.258 3.167,-5.879 3.665,-10.863l0.65,0l0,14.85l-32.5,0l0,-0.5c2.967,0 4.933,-0.184 5.9,-0.552c0.333,-0.134 0.558,-0.309 0.675,-0.527c0.117,-0.217 0.175,-0.794 0.175,-1.73l0,-25.683c0,-0.969 -0.067,-1.571 -0.2,-1.805c-0.067,-0.134 -0.283,-0.268 -0.65,-0.401c-0.367,-0.134 -1.117,-0.267 -2.25,-0.401c-1.133,-0.134 -2.35,-0.201 -3.65,-0.201l0,-0.45l30.85,0l0,12.5l-0.65,0c0,-2.578 -0.648,-5.038 -1.945,-7.381c-1.728,-3.113 -4.171,-4.669 -7.328,-4.669c-1.263,0 -2.535,0.008 -3.814,0.025c-1.28,0.017 -2.418,0.176 -3.415,0.478c-0.299,0.134 -0.507,0.311 -0.623,0.529c-0.117,0.218 -0.175,0.814 -0.175,1.787l0,11.731c3.447,0 5.586,-0.35 6.415,-1.05c1.259,-1.067 2.138,-3.933 2.635,-8.6l0.6,0l0,19.7l-0.6,0c-0.497,-4.567 -1.359,-7.383 -2.586,-8.45c-0.862,-0.733 -3.017,-1.1 -6.464,-1.1Z" style="fill:#fff;fill-rule:nonzero;"/><path d="M268.398,343.586l-4.57,-12.731l-4.569,12.731l9.139,0Zm0.248,0.55l-9.635,0l-1.54,4.42c-0.397,1.105 -0.596,2.06 -0.596,2.863c0,1.24 0.467,2.127 1.4,2.663c0.933,0.536 2.25,0.804 3.95,0.804l0,0.5l-12.7,0l0,-0.5c2.3,0 4.083,-0.868 5.35,-2.604c0.7,-0.968 1.6,-2.971 2.7,-6.009l8.45,-23.537l1,0l10.8,29.345c0.5,1.369 1,2.179 1.5,2.43c0.5,0.25 2,0.375 4.5,0.375l0,0.5l-18.45,0l0,-0.5c2.5,0 4.217,-0.092 5.15,-0.276c0.933,-0.184 1.4,-0.561 1.4,-1.13l-0.1,-0.503l-3.179,-8.841Z" style="fill:#fff;fill-rule:nonzero;"/><path d="M301.368,325.586c1.938,-1.7 3.024,-2.65 3.257,-2.85l0,10.9l-0.4,-0.15c-0.467,-2.919 -1.683,-5.366 -3.65,-7.34c-1.967,-1.973 -4.2,-2.96 -6.7,-2.96c-1.733,0 -3.233,0.399 -4.5,1.198c-1.567,0.965 -2.35,2.38 -2.35,4.243c0,1.798 0.848,3.262 2.544,4.393c1.429,0.965 3.724,1.814 6.883,2.546c4.09,0.999 6.767,1.947 8.031,2.846c2.061,1.498 3.092,3.994 3.092,7.489c0,3.295 -1.067,5.841 -3.2,7.638c-1.8,1.531 -3.983,2.297 -6.55,2.297c-1.967,0 -3.725,-0.317 -5.275,-0.95c-1.55,-0.633 -2.892,-1.683 -4.025,-3.15c-2,2.633 -3.05,4 -3.15,4.1l0,-13.8l0.4,-0.05c0.633,2.867 1.35,5.167 2.15,6.9c0.667,1.467 1.45,2.683 2.35,3.65c1.767,1.9 4.333,2.85 7.7,2.85c1.567,0 3,-0.516 4.3,-1.548c1.5,-1.198 2.25,-2.695 2.25,-4.493c0,-2.197 -1.014,-3.927 -3.043,-5.192c-1.396,-0.865 -3.832,-1.772 -7.307,-2.72c-3.475,-0.949 -5.894,-1.922 -7.257,-2.921c-1.995,-1.502 -2.993,-3.689 -2.993,-6.56c0,-2.571 0.911,-4.75 2.732,-6.536c1.821,-1.787 3.984,-2.68 6.491,-2.68c2.138,0 3.893,0.317 5.263,0.95c0.434,0.2 1.42,0.833 2.957,1.9Z" style="fill:#fff;fill-rule:nonzero;"/><path d="M323.775,340.336l5.07,0c2.778,0 4.72,-0.719 5.825,-2.156c0.937,-1.237 1.405,-3.21 1.405,-5.918c0,-2.842 -0.619,-4.998 -1.857,-6.469c-1.239,-1.472 -3.146,-2.207 -5.723,-2.207l-2.411,0c-0.702,0 -1.221,0.05 -1.556,0.15c-0.335,0.101 -0.544,0.31 -0.628,0.627c-0.083,0.318 -0.125,0.961 -0.125,1.931l0,14.042Zm0,0.45l0,11.29c0,0.97 0.067,1.589 0.2,1.857c0.067,0.134 0.3,0.276 0.7,0.426c0.4,0.151 1.183,0.276 2.35,0.377c1.167,0.1 2.767,0.15 4.8,0.15l0,0.5l-21.6,0l0,-0.5c1.7,0 3.108,-0.05 4.225,-0.15c1.117,-0.101 1.875,-0.226 2.275,-0.377c0.4,-0.15 0.633,-0.292 0.7,-0.426c0.133,-0.268 0.2,-0.886 0.2,-1.856l0,-25.783c0,-0.902 -0.067,-1.487 -0.2,-1.755c-0.067,-0.134 -0.267,-0.268 -0.6,-0.402c-1.033,-0.367 -3.233,-0.551 -6.6,-0.551l0,-0.45l19.4,0c3.967,0 7.1,0.917 9.4,2.75c2.167,1.733 3.25,4 3.25,6.8c0,1.9 -0.833,3.633 -2.5,5.2c-2.067,1.933 -4.867,2.9 -8.4,2.9l-7.6,0Z" style="fill:#fff;fill-rule:nonzero;"/><path d="M369.725,352.077l0,-12.941l-14.25,0l0,12.941c0,0.97 0.067,1.588 0.2,1.856c0.067,0.134 0.292,0.276 0.675,0.426c0.383,0.151 1.092,0.276 2.125,0.377c1.033,0.1 2.25,0.15 3.65,0.15l0,0.5l-19.6,0l0,-0.5c1.433,0 2.675,-0.05 3.725,-0.15c1.05,-0.101 1.767,-0.226 2.15,-0.377c0.383,-0.15 0.633,-0.334 0.75,-0.552c0.117,-0.217 0.175,-0.794 0.175,-1.73l0,-25.683c0,-0.969 -0.067,-1.571 -0.2,-1.805c-0.067,-0.134 -0.292,-0.268 -0.675,-0.401c-0.383,-0.134 -1.133,-0.267 -2.25,-0.401c-1.117,-0.134 -2.342,-0.201 -3.675,-0.201l0,-0.45l19.65,0l0,0.45c-2.833,0 -4.783,0.201 -5.85,0.602c-0.333,0.134 -0.533,0.267 -0.6,0.401c-0.167,0.301 -0.25,0.903 -0.25,1.806l0,11.891l14.25,0l0,-11.891c0,-0.936 -0.083,-1.538 -0.25,-1.806c-0.067,-0.134 -0.283,-0.268 -0.65,-0.401c-0.367,-0.134 -1.117,-0.267 -2.25,-0.401c-1.133,-0.134 -2.333,-0.201 -3.6,-0.201l0,-0.45l19.65,0l0,0.45c-1.5,0 -2.733,0.05 -3.7,0.15c-0.967,0.101 -1.717,0.251 -2.25,0.451l-0.45,0.201c-0.233,0.235 -0.35,0.903 -0.35,2.006l0,25.683c0,0.97 0.067,1.588 0.2,1.856c0.067,0.134 0.267,0.267 0.6,0.401c0.967,0.368 2.95,0.552 5.95,0.552l0,0.5l-19.6,0l0,-0.5c2.933,0 4.883,-0.184 5.85,-0.552c0.367,-0.134 0.583,-0.267 0.65,-0.401c0.133,-0.234 0.2,-0.853 0.2,-1.856Z" style="fill:#fff;fill-rule:nonzero;"/><path d="M396.525,338.086l4.631,0c2.423,0 4.216,-0.453 5.378,-1.359c1.394,-1.074 2.091,-2.887 2.091,-5.438c0,-2.819 -0.573,-4.808 -1.718,-5.966c-1.145,-1.158 -3.046,-1.737 -5.702,-1.737l-2.389,0c-0.698,0 -1.212,0.05 -1.544,0.151c-0.332,0.101 -0.539,0.311 -0.622,0.629c-0.083,0.319 -0.125,0.965 -0.125,1.939l0,11.781Zm20.25,10.1l0,1.65c0,1.967 -0.184,3.333 -0.553,4.1c-0.603,1.267 -1.793,1.9 -3.568,1.9c-2.313,0 -3.837,-0.867 -4.574,-2.6c-0.603,-1.4 -0.905,-4.067 -0.905,-8l0,-1.05c0,-0.333 0.017,-0.683 0.05,-1.05c0,-1.767 -0.415,-2.958 -1.244,-3.575c-0.83,-0.617 -2.024,-0.925 -3.583,-0.925l-5.873,0l0,13.441c0,1.003 0.058,1.639 0.175,1.906c0.117,0.268 0.367,0.477 0.75,0.627c0.383,0.151 1.167,0.243 2.35,0.276c1.183,0.033 2.425,0.05 3.725,0.05l0,0.45l-20.35,0l0,-0.5c3.5,0 5.6,-0.134 6.3,-0.402c0.333,-0.133 0.567,-0.325 0.7,-0.576c0.133,-0.251 0.2,-0.861 0.2,-1.831l0,-25.783c0,-0.936 -0.067,-1.521 -0.2,-1.755c-0.067,-0.134 -0.283,-0.268 -0.65,-0.402c-0.967,-0.367 -3.083,-0.551 -6.35,-0.551l0,-0.45l20.45,0c3.6,0 6.467,0.968 8.6,2.904c1.7,1.535 2.55,3.121 2.55,4.757c0,1.936 -0.67,3.521 -2.009,4.756c-1.606,1.502 -4.15,2.453 -7.632,2.854c3.554,0.699 5.901,2.68 7.041,5.942c0.573,1.631 0.86,4.095 0.86,7.391c0,0.965 0.085,1.664 0.253,2.097c0.169,0.432 0.574,0.649 1.214,0.649c0.709,0 1.199,-0.558 1.468,-1.675c0.27,-1.117 0.405,-2.658 0.405,-4.625l0.4,0Z" style="fill:#fff;fill-rule:nonzero;"/><path d="M430.625,338.636l0,13.391c0,0.937 0.05,1.522 0.15,1.756c0.099,0.234 0.415,0.443 0.947,0.627c0.532,0.184 1.147,0.293 1.846,0.326c0.698,0.033 1.944,0.05 3.739,0.05c3.79,0 6.658,-1.129 8.603,-3.387c1.945,-2.258 3.167,-5.879 3.665,-10.863l0.65,0l0,14.85l-32.5,0l0,-0.5c2.967,0 4.933,-0.184 5.9,-0.552c0.333,-0.134 0.558,-0.309 0.675,-0.527c0.117,-0.217 0.175,-0.794 0.175,-1.73l0,-25.683c0,-0.969 -0.067,-1.571 -0.2,-1.805c-0.067,-0.134 -0.283,-0.268 -0.65,-0.401c-0.367,-0.134 -1.117,-0.267 -2.25,-0.401c-1.133,-0.134 -2.35,-0.201 -3.65,-0.201l0,-0.45l30.85,0l0,12.5l-0.65,0c0,-2.578 -0.648,-5.038 -1.945,-7.381c-1.728,-3.113 -4.171,-4.669 -7.328,-4.669c-1.263,0 -2.535,0.008 -3.814,0.025c-1.28,0.017 -2.418,0.176 -3.415,0.478c-0.299,0.134 -0.507,0.311 -0.623,0.529c-0.117,0.218 -0.175,0.814 -0.175,1.787l0,11.731c3.447,0 5.586,-0.35 6.415,-1.05c1.259,-1.067 2.138,-3.933 2.635,-8.6l0.6,0l0,19.7l-0.6,0c-0.497,-4.567 -1.359,-7.383 -2.586,-8.45c-0.862,-0.733 -3.017,-1.1 -6.464,-1.1Z" style="fill:#fff;fill-rule:nonzero;"/><path d="M471.348,343.586l-4.57,-12.731l-4.569,12.731l9.139,0Zm0.248,0.55l-9.635,0l-1.54,4.42c-0.397,1.105 -0.596,2.06 -0.596,2.863c0,1.24 0.467,2.127 1.4,2.663c0.933,0.536 2.25,0.804 3.95,0.804l0,0.5l-12.7,0l0,-0.5c2.3,0 4.083,-0.868 5.35,-2.604c0.7,-0.968 1.6,-2.971 2.7,-6.009l8.45,-23.537l1,0l10.8,29.345c0.5,1.369 1,2.179 1.5,2.43c0.5,0.25 2,0.375 4.5,0.375l0,0.5l-18.45,0l0,-0.5c2.5,0 4.217,-0.092 5.15,-0.276c0.933,-0.184 1.4,-0.561 1.4,-1.13l-0.1,-0.503l-3.179,-8.841Z" style="fill:#fff;fill-rule:nonzero;"/><path d="M499.825,341.436l11.441,-11.414c1.573,-1.576 2.359,-2.883 2.359,-3.922c0,-0.838 -0.467,-1.467 -1.4,-1.886c-0.933,-0.419 -2.3,-0.628 -4.1,-0.628l0,-0.45l14.05,0l0,0.45c-1.6,0 -3.117,0.452 -4.55,1.358c-0.897,0.569 -2.94,2.514 -6.13,5.833l-3.29,3.368l9.52,17.985c0.7,1.303 1.342,2.096 1.925,2.38c0.583,0.284 2.092,0.426 4.525,0.426l0,0.45l-17.35,0l0,-0.45c2.067,0 3.425,-0.05 4.075,-0.15c0.65,-0.1 0.975,-0.35 0.975,-0.751c0,-0.133 -0.017,-0.25 -0.05,-0.351l-0.449,-0.9l-7.386,-14.365l-4.165,4.017l0,9.639c0,0.97 0.067,1.589 0.2,1.857c0.067,0.134 0.292,0.276 0.675,0.427c0.383,0.15 1.075,0.276 2.075,0.376c1,0.101 2.117,0.151 3.35,0.151l0,0.5l-19.25,0l0,-0.5c1.367,0 2.583,-0.067 3.65,-0.201c1.067,-0.134 1.758,-0.259 2.075,-0.376c0.317,-0.117 0.558,-0.209 0.725,-0.275c0.233,-0.201 0.35,-0.854 0.35,-1.957l0,-25.783c0,-0.936 -0.067,-1.521 -0.2,-1.755c-0.067,-0.134 -0.283,-0.268 -0.65,-0.402c-0.967,-0.367 -2.95,-0.551 -5.95,-0.551l0,-0.45l19.7,0l0,0.45c-2.967,0 -4.933,0.184 -5.9,0.553l-0.5,0.201c-0.233,0.201 -0.35,0.855 -0.35,1.961l0,15.135Z" style="fill:#fff;fill-rule:nonzero;"/></g></g></svg>